<svg width="99" height="11" viewBox="0 0 99 11" fill="none" xmlns="http://www.w3.org/2000/svg">
<path d="M4.48 0.836083H5.19V1.80608H9.07V2.48608H5.19V3.75608H8.38V6.96608H1.76V3.75608H4.48V0.836083ZM7.66 6.29608V4.43608H2.48V6.29608H7.66ZM2.35 7.69608C1.96333 8.57608 1.52667 9.32942 1.04 9.95608L0.45 9.52608C0.95 8.93942 1.38 8.23275 1.74 7.40608L2.35 7.69608ZM3.92 7.69608C4.12 8.34942 4.3 9.06608 4.46 9.84608L3.74 10.0061C3.6 9.16608 3.43667 8.44275 3.25 7.83608L3.92 7.69608ZM6.01 7.59608C6.30333 8.26275 6.56333 9.00608 6.79 9.82608L6.08 9.98608C5.88 9.13275 5.63 8.38275 5.33 7.73608L6.01 7.59608ZM8.06 7.39608C8.67333 8.20275 9.16 8.93275 9.52 9.58608L8.92 10.0061C8.58 9.34608 8.1 8.59942 7.48 7.76608L8.06 7.39608ZM11.36 2.29608H14.63V0.886083H15.37V2.29608H18.6V2.98608H15.37V4.64608H19.42V5.34608H15.37V8.87608H17.73V6.21608H18.42V10.0061H17.73V9.54608H12.28V10.0061H11.59V6.21608H12.28V8.87608H14.63V5.34608H10.59V4.64608H14.63V2.98608H11.36V2.29608ZM26.92 5.66608H25.07V6.19608C25.0633 6.48275 25.0433 6.75275 25.01 7.00608H26.92V5.66608ZM26.92 7.66608H24.9C24.7933 8.07275 24.6667 8.40942 24.52 8.67608C24.18 9.25608 23.6267 9.70608 22.86 10.0261L22.46 9.39608C23.1733 9.09608 23.6667 8.69942 23.94 8.20608C24.02 8.03275 24.09 7.85275 24.15 7.66608H22.38V7.00608H24.3C24.3333 6.74608 24.3533 6.47608 24.36 6.19608V5.66608H22.74V5.00608H24.36C24.1467 4.65275 23.9567 4.35942 23.79 4.12608L24.4 3.83608C24.6733 4.24275 24.9067 4.63275 25.1 5.00608H26.66C26.96 4.61275 27.2167 4.20275 27.43 3.77608L28.12 4.01608C27.9133 4.37608 27.6833 4.70608 27.43 5.00608H29.06V5.66608H27.61V7.00608H29.45V7.66608H27.61V9.90608H26.92V7.66608ZM28.23 1.84608H22.18V2.87608H28.23V1.84608ZM22.18 3.55608V4.49608C22.1667 6.62942 21.8033 8.45275 21.09 9.96608L20.47 9.42608C21.1233 8.15275 21.4567 6.50942 21.47 4.49608V1.16608H28.93V3.55608H22.18ZM34.68 6.81608H35.36V7.51608H37.67C37.1233 7.18942 36.7033 6.84275 36.41 6.47608H33.82C33.4667 6.86275 33.0267 7.20942 32.5 7.51608H34.68V6.81608ZM34.68 8.06608H32.79V9.73608H32.11V7.72608C31.69 7.93275 31.24 8.12275 30.76 8.29608L30.45 7.69608C31.55 7.34942 32.3867 6.94275 32.96 6.47608H30.7V5.87608H33.54C33.6667 5.70275 33.7667 5.52942 33.84 5.35608H31.8V2.70608H32.96V2.06608H30.58V1.47608H32.96V0.806084H33.65V1.47608H36.36V0.806084H37.05V1.47608H39.43V2.06608H37.05V2.70608H38.21V5.35608H34.51C34.4367 5.54275 34.3533 5.71608 34.26 5.87608H39.3V6.47608H37.14C37.6933 6.96942 38.51 7.35608 39.59 7.63608L39.3 8.23608C38.82 8.06942 38.42 7.90608 38.1 7.74608V8.95608C38.1 9.48275 37.81 9.74608 37.23 9.74608H36.47L36.32 9.14608L37.03 9.16608C37.29 9.16608 37.42 9.04608 37.42 8.80608V8.06608H35.36V9.98608H34.68V8.06608ZM36.36 2.06608H33.65V2.70608H36.36V2.06608ZM37.53 4.85608V4.25608H32.48V4.85608H37.53ZM32.48 3.78608H37.53V3.22608H32.48V3.78608ZM49.1 1.75608C48.4067 1.99608 47.5833 2.17608 46.63 2.29608V5.07608H49.54V5.77608H46.63V8.84608H49.04V9.54608H43.51V8.84608H45.91V5.77608H43.02V5.07608H45.91V2.37608C45.2167 2.42942 44.5233 2.45608 43.83 2.45608L43.6 1.77608C45.6667 1.77608 47.38 1.56608 48.74 1.14608L49.1 1.75608ZM43.37 1.14608C43.1167 1.89942 42.7833 2.62608 42.37 3.32608V10.0061H41.65V4.39608C41.33 4.81608 40.9733 5.22275 40.58 5.61608L40.35 4.84608C41.4233 3.69275 42.2067 2.35608 42.7 0.836083L43.37 1.14608ZM52.74 2.04608H51.13V1.42608H54.57C54.47 1.20608 54.37 1.00608 54.27 0.826084L55.04 0.706083C55.1733 0.979417 55.2767 1.21942 55.35 1.42608H58.87V2.04608H57.24L56.85 2.83608H59.34V3.46608H50.66V2.83608H53.06L52.74 2.04608ZM53.81 2.83608H56.1L56.49 2.04608H53.49L53.81 2.83608ZM51.8 4.05608H58.2V7.01608H51.8V4.05608ZM57.5 6.45608V5.79608H52.5V6.45608H57.5ZM52.5 5.26608H57.5V4.62608H52.5V5.26608ZM52.1 7.62608C51.8533 8.43942 51.5267 9.12942 51.12 9.69608L50.5 9.30608C50.9067 8.75942 51.2067 8.15275 51.4 7.48608L52.1 7.62608ZM53.93 9.82608C53.2567 9.82608 52.92 9.51608 52.92 8.89608V7.57608H53.66V8.74608C53.66 9.03275 53.82 9.17608 54.14 9.17608H56.24C56.46 9.17608 56.61 9.13608 56.69 9.05608C56.81 8.95608 56.89 8.65275 56.93 8.14608L57.61 8.36608C57.5433 9.05275 57.4067 9.47608 57.2 9.63608C57.0133 9.76275 56.7367 9.82608 56.37 9.82608H53.93ZM55.11 7.20608C55.5433 7.63942 55.8667 8.01608 56.08 8.33608L55.48 8.75608C55.2267 8.37608 54.9 7.98608 54.5 7.58608L55.11 7.20608ZM58.25 7.39608C58.8433 8.10275 59.2767 8.68608 59.55 9.14608L58.95 9.56608C58.6233 8.99942 58.1967 8.39608 57.67 7.75608L58.25 7.39608ZM63.36 1.06608C63.1 1.85275 62.7767 2.58608 62.39 3.26608V10.0061H61.67V4.36608C61.33 4.81942 60.97 5.24608 60.59 5.64608L60.36 4.87608C61.4267 3.66942 62.2033 2.29608 62.69 0.756084L63.36 1.06608ZM63.31 2.42608H66C65.8667 1.93275 65.7033 1.44608 65.51 0.966084L66.27 0.836083C66.43 1.29608 66.58 1.82608 66.72 2.42608H69.33V3.11608H63.31V2.42608ZM63.14 8.80608H66.58C67.0867 7.48608 67.53 5.80608 67.91 3.76608L68.6 3.94608C68.2533 5.75275 67.8267 7.37275 67.32 8.80608H69.59V9.51608H63.14V8.80608ZM64.54 3.87608C64.9267 5.16275 65.2767 6.63942 65.59 8.30608L64.92 8.48608C64.6533 6.99275 64.3067 5.52275 63.88 4.07608L64.54 3.87608ZM70.71 3.64608H74.6L74.66 3.06608H71.38V1.19608H78.62V3.06608H75.38L75.32 3.64608H79.3V4.19608H75.24L75.13 4.76608H78.03V9.17608H79.48V9.75608H70.53V9.17608H71.98V4.76608H74.41L74.52 4.19608H70.71V3.64608ZM72.68 9.17608H77.32V8.51608H72.68V9.17608ZM72.68 8.06608H77.32V7.43608H72.68V8.06608ZM72.68 6.97608H77.32V6.34608H72.68V6.97608ZM72.68 5.89608H77.32V5.26608H72.68V5.89608ZM77.94 2.55608V1.72608H76.45V2.55608H77.94ZM75.79 2.55608V1.72608H74.21V2.55608H75.79ZM73.56 2.55608V1.72608H72.07V2.55608H73.56ZM81.26 0.976083C81.9467 1.51608 82.5167 2.03942 82.97 2.54608L82.45 3.06608C82.05 2.56608 81.49 2.02608 80.77 1.44608L81.26 0.976083ZM86.94 9.80608C86.6133 9.80608 86.0367 9.79942 85.21 9.78608C84.5833 9.77275 84.0733 9.71275 83.68 9.60608C83.3 9.48608 82.9567 9.24275 82.65 8.87608C82.5233 8.70942 82.4 8.62608 82.28 8.62608C82.04 8.62608 81.6433 9.08608 81.09 10.0061L80.55 9.51608C81.0833 8.67608 81.5533 8.16608 81.96 7.98608V4.94608H80.54V4.28608H82.63V8.03608C82.6967 8.08942 82.7733 8.16275 82.86 8.25608C83.1 8.54275 83.35 8.75275 83.61 8.88608C83.91 9.02608 84.3467 9.10608 84.92 9.12608C85.6133 9.13942 86.2533 9.14608 86.84 9.14608C87.1667 9.14608 87.6767 9.13942 88.37 9.12608C88.9567 9.11275 89.3567 9.09942 89.57 9.08608L89.39 9.80608H86.94ZM85.97 5.27608C86.57 5.62942 87.08 5.95608 87.5 6.25608C87.9067 5.89608 88.2433 5.55275 88.51 5.22608L89.03 5.63608C88.6767 6.04275 88.3433 6.37942 88.03 6.64608C88.5767 7.07275 89.04 7.47608 89.42 7.85608L88.97 8.38608C88.09 7.45942 86.9533 6.58608 85.56 5.76608L85.97 5.27608ZM84.63 3.36608V4.28608H88.03V3.36608H84.63ZM88.03 2.76608V1.83608H84.63V2.76608H88.03ZM84.63 4.92608V7.63608C85.2633 7.52275 85.93 7.36608 86.63 7.16608L86.79 7.81608C86.0033 8.03608 85.0133 8.24608 83.82 8.44608L83.66 7.83608C83.84 7.77608 83.93 7.67608 83.93 7.53608V1.19608H88.73V4.92608H84.63ZM97.71 4.29608V1.56608H98.43V4.99608H95.37V8.66608H98.19V5.93608H98.92V9.91608H98.19V9.35608H91.81V9.91608H91.08V5.93608H91.81V8.66608H94.63V4.99608H91.57V1.56608H92.29V4.29608H94.63V0.806084H95.37V4.29608H97.71Z" fill="#C5C5C5"/>
</svg>
