<svg width="242" height="124" viewBox="0 0 242 124" fill="none" xmlns="http://www.w3.org/2000/svg">
<path d="M28.3485 6.07785V6.87086H31.2605V6.07785H28.3485ZM31.2605 5.34986V4.55685H28.3485V5.34986H31.2605ZM28.3485 7.59886V9.17186H27.4905V3.77685H32.1185V8.22286C32.1185 8.84686 31.7805 9.15886 31.1045 9.15886H30.0255L29.8045 8.36586L30.8315 8.40486C31.1175 8.40486 31.2605 8.27919 31.2605 8.02786V7.59886H28.3485ZM34.4195 4.58286C33.6655 4.58286 33.2885 4.21019 33.2885 3.46485V0.513855H34.1725V1.78785C35.5505 1.48452 36.6815 1.17252 37.5655 0.851854L37.8385 1.61885C36.7379 1.98285 35.5159 2.30352 34.1725 2.58085V3.28285C34.1725 3.60352 34.3415 3.76385 34.6795 3.76385H36.3695C36.6642 3.76385 36.8809 3.71619 37.0195 3.62086C37.2015 3.49085 37.3185 3.13985 37.3705 2.56785L38.1895 2.84086C38.0855 3.67285 37.9035 4.17985 37.6435 4.36185C37.4009 4.50919 37.0282 4.58286 36.5255 4.58286H34.4195ZM34.1725 7.74186C34.1725 8.04519 34.3329 8.19685 34.6535 8.19685H36.4865C36.7639 8.19685 36.9589 8.14486 37.0715 8.04086C37.2189 7.91952 37.3185 7.54252 37.3705 6.90986L38.2155 7.18286C38.1202 8.07552 37.9469 8.61719 37.6955 8.80786C37.4615 8.97252 37.1105 9.05486 36.6425 9.05486H34.3935C33.6569 9.05486 33.2885 8.67352 33.2885 7.91085V5.07686H34.1725V6.12986C35.4465 5.93919 36.5905 5.63152 37.6045 5.20685L37.8775 5.97386C36.7249 6.42452 35.4899 6.73652 34.1725 6.90986V7.74186ZM29.1415 9.91286C28.6562 10.8749 28.0669 11.7155 27.3735 12.4349L26.6325 11.9019C27.2999 11.2605 27.8849 10.4762 28.3875 9.54886L29.1415 9.91286ZM31.2475 9.70486C31.4989 10.4589 31.7199 11.2779 31.9105 12.1619L30.9875 12.3829C30.8315 11.4469 30.6279 10.6192 30.3765 9.89986L31.2475 9.70486ZM33.8995 9.63986C34.2115 10.3505 34.5062 11.2042 34.7835 12.2009L33.8865 12.4089C33.6525 11.4469 33.3665 10.5845 33.0285 9.82186L33.8995 9.63986ZM36.3825 9.48386C37.1885 10.3852 37.8169 11.1912 38.2675 11.9019L37.5265 12.4349C37.0152 11.6115 36.3955 10.7752 35.6675 9.92586L36.3825 9.48386ZM31.1695 0.825855C31.8629 1.62319 32.4002 2.32952 32.7815 2.94485L32.0925 3.42585L31.7025 2.82785C30.4025 3.00119 28.8859 3.12686 27.1525 3.20486L26.9315 2.50285C27.0962 2.44219 27.2219 2.36852 27.3085 2.28185C28.0192 1.69252 28.5912 1.03819 29.0245 0.318854L29.8695 0.578855C29.3842 1.35885 28.8425 1.98719 28.2445 2.46385C29.1979 2.41185 30.1989 2.32085 31.2475 2.19086C31.0915 1.98286 30.8402 1.67086 30.4935 1.25485L31.1695 0.825855ZM51.0075 4.88185V12.3569H50.1105V11.7329H45.2615V12.3569H44.3645V4.88185H51.0075ZM45.2615 10.8749H47.2635V8.76886H45.2615V10.8749ZM48.1215 10.8749H50.1105V8.76886H48.1215V10.8749ZM45.2615 7.92386H47.2635V5.75285H45.2615V7.92386ZM48.1215 5.75285V7.92386H50.1105V5.75285H48.1215ZM45.6515 0.461855H46.5355V1.96985H48.7975V0.461855H49.6815V1.96985H51.4105V2.84086H49.6815V4.27085H48.7975V2.84086H46.5355V4.25785H45.6515V2.84086H43.9225V1.96985H45.6515V0.461855ZM43.9745 1.08585C43.4719 1.92652 42.9649 2.61552 42.4535 3.15286C42.4882 3.22219 42.5705 3.40852 42.7005 3.71185C43.0819 4.75185 43.2899 6.21652 43.3245 8.10586C43.3245 10.1945 43.0645 11.4599 42.5445 11.9019C42.2412 12.1272 41.8165 12.2399 41.2705 12.2399L40.3865 12.2269L40.1135 11.3559C40.5469 11.3905 40.8632 11.4079 41.0625 11.4079C41.5045 11.4079 41.7949 11.3299 41.9335 11.1739C42.2629 10.8272 42.4275 9.78719 42.4275 8.05386C42.4275 7.68119 42.4102 7.20885 42.3755 6.63686C41.7169 7.59019 40.9585 8.37886 40.1005 9.00286L39.5675 8.22286C40.7029 7.45152 41.5869 6.51119 42.2195 5.40186C42.1502 4.95119 42.0419 4.52219 41.8945 4.11486L41.7645 3.81586C41.2965 4.20586 40.7419 4.60886 40.1005 5.02485L39.5935 4.21886C40.2175 3.89819 40.7982 3.48652 41.3355 2.98385C40.9542 2.38585 40.4905 1.84419 39.9445 1.35885L40.6725 0.786855C41.1579 1.27219 41.5912 1.78785 41.9725 2.33385C42.4319 1.80519 42.8435 1.22885 43.2075 0.604855L43.9745 1.08585ZM53.1525 2.13885H56.2075C56.4762 1.55819 56.7189 0.977521 56.9355 0.396855L57.8715 0.604855C57.7069 1.02952 57.4902 1.54085 57.2215 2.13885H63.8515V3.04885H56.7665C56.1772 4.15819 55.5359 5.13752 54.8425 5.98685H58.1965V4.07585H59.1455V5.98685H63.1495V6.84486H59.1455V8.75586H64.0725V9.66586H59.1455V12.4609H58.1965V9.66586H52.9575V8.75586H58.1965V6.84486H53.8675L53.6595 5.98685C54.4135 5.20685 55.1112 4.22752 55.7525 3.04885H53.1525V2.13885ZM67.6085 0.903855H75.5125V5.41485H67.6085V0.903855ZM74.5895 4.62186V3.55585H68.5315V4.62186H74.5895ZM68.5315 2.78886H74.5895V1.70986H68.5315V2.78886ZM71.1835 7.23486H65.7625V6.37685H77.2675V7.23486H72.1325V8.70386H75.8765V9.53586H72.1325V11.2649C72.8605 11.3255 73.6059 11.3559 74.3685 11.3559C75.4952 11.3559 76.4399 11.3429 77.2025 11.3169L76.9425 12.2009C76.2579 12.2009 75.4215 12.1922 74.4335 12.1749C72.3015 12.1749 70.8455 12.0102 70.0655 11.6809C69.3895 11.3775 68.7959 10.8012 68.2845 9.95186C67.7819 10.8965 67.1362 11.6939 66.3475 12.3439L65.7365 11.5769C66.9325 10.6149 67.7472 9.31919 68.1805 7.68986L69.0645 7.84586C68.9259 8.36586 68.7785 8.82086 68.6225 9.21086C69.1599 10.1122 69.7752 10.6885 70.4685 10.9399C70.7199 11.0179 70.9582 11.0785 71.1835 11.1219V7.23486ZM79.2955 1.02085C80.1189 2.02619 80.7559 2.91885 81.2065 3.69885L80.4655 4.21886C79.9542 3.36952 79.2999 2.46819 78.5025 1.51485L79.2955 1.02085ZM81.3495 6.67586C80.7515 8.60852 80.1015 10.3939 79.3995 12.0319L78.5285 11.6419C79.2912 9.89986 79.9499 8.13619 80.5045 6.35085L81.3495 6.67586ZM83.8065 12.3309L83.6115 11.4079C84.1055 11.4512 84.5302 11.4729 84.8855 11.4729C85.2495 11.4729 85.4315 11.3082 85.4315 10.9789V0.487854H86.3805V3.13986C86.5625 3.81585 86.8052 4.50919 87.1085 5.21985C87.9839 4.55252 88.7509 3.62952 89.4095 2.45085L90.1245 3.03585C89.3532 4.34452 88.4692 5.33685 87.4725 6.01286C88.2179 7.58152 89.2189 9.03319 90.4755 10.3679L89.8645 11.1479C88.3392 9.35386 87.1779 7.42552 86.3805 5.36285V11.2129C86.3805 11.9582 85.9905 12.3309 85.2105 12.3309H83.8065ZM81.6745 4.42685V3.52985H84.8075V4.37485C84.4435 7.44286 83.3602 9.69186 81.5575 11.1219L80.9205 10.3939C82.5932 9.07652 83.6029 7.08752 83.9495 4.42685H81.6745ZM97.0275 0.448855H97.9895V2.85386H101.058V0.929855H101.981V3.72485H93.0885V0.929855H94.0115V2.85386H97.0275V0.448855ZM95.1815 11.6939V12.3829H94.2455V8.78186C93.5435 9.31919 92.7982 9.79586 92.0095 10.2119L91.5155 9.40586C93.4482 8.52186 94.8435 7.37352 95.7015 5.96085H91.6845V5.08985H103.32V5.96085H96.6765C96.3472 6.53286 95.9572 7.08319 95.5065 7.61185H101.942V12.3699H101.019V11.6939H95.1815ZM101.019 10.8229V8.48286H95.1815V10.8229H101.019ZM110.301 3.21785C109.711 4.46585 109.022 5.56219 108.234 6.50685L107.571 5.71385C108.723 4.34452 109.664 2.56785 110.392 0.383855L111.328 0.591855C111.102 1.23319 110.894 1.80085 110.704 2.29485H116.32V3.21785H111.952V5.36285H115.748V6.27286H111.952V8.46986H115.826V9.36686H111.952V12.3959H111.003V3.21785H110.301ZM106.141 5.08985C105.725 5.63585 105.27 6.15585 104.776 6.64985L104.464 5.66185C105.876 4.12785 106.899 2.38152 107.532 0.422855L108.416 0.838855C108.069 1.83552 107.631 2.78452 107.103 3.68586V12.3959H106.141V5.08985ZM117.776 3.91986H119.349V0.539855H120.285V3.91986H121.819V4.82985H120.285V9.10686C120.909 8.89019 121.502 8.65619 122.066 8.40486V9.35386C120.731 9.92586 119.292 10.4069 117.75 10.7969L117.529 9.84786C118.222 9.70052 118.829 9.55319 119.349 9.40586V4.82985H117.776V3.91986ZM123.886 3.38686H122.157V2.48986H125.446C125.22 1.82252 124.956 1.16819 124.653 0.526855L125.667 0.357855C125.961 1.06852 126.213 1.77919 126.421 2.48986H129.281V3.38686H124.809V4.32285C124.809 4.63485 124.791 5.06819 124.757 5.62286H128.631C128.605 8.41352 128.509 10.2335 128.345 11.0829C128.119 11.8369 127.569 12.2269 126.694 12.2529C126.26 12.2529 125.749 12.2399 125.16 12.2139L124.9 11.3949C125.801 11.4295 126.364 11.4469 126.59 11.4469C127.11 11.4209 127.435 11.1262 127.565 10.5629C127.634 10.0169 127.682 8.66486 127.708 6.50685H124.666C124.328 9.07219 123.439 11.0222 122.001 12.3569L121.273 11.7199C122.989 10.1859 123.86 7.72019 123.886 4.32285V3.38686ZM131.465 1.24185H141.592V2.15185H139.421V5.59685H142.268V6.49386H139.421V12.2529H138.472V6.49386H134.715C134.593 7.83719 134.342 8.94652 133.961 9.82186C133.467 10.9139 132.648 11.7589 131.504 12.3569L130.997 11.5509C132.054 10.9529 132.791 10.1599 133.207 9.17186C133.475 8.43519 133.662 7.54252 133.766 6.49386H130.763V5.59685H133.818L133.831 5.14186V2.15185H131.465V1.24185ZM134.793 2.15185V5.37586L134.78 5.59685H138.472V2.15185H134.793ZM144.517 4.45285L145.544 0.838855L146.467 0.994855L145.726 3.55585H148.001C148.261 2.53319 148.469 1.47152 148.625 0.370854L149.574 0.487854C149.418 1.51052 149.214 2.53319 148.963 3.55585H155.047V4.45285H148.716C148.534 5.06819 148.369 5.56219 148.222 5.93485H153.539V6.74085C153.183 7.86752 152.477 8.88152 151.42 9.78286C152.468 10.4069 153.751 10.9789 155.268 11.4989L154.787 12.3699C153.123 11.7545 151.745 11.0915 150.653 10.3809C149.604 11.1175 148.282 11.7979 146.688 12.4219L146.194 11.5509C147.641 11.0222 148.854 10.4372 149.834 9.79586C148.828 9.02452 148.109 8.17952 147.676 7.26086C146.731 9.30619 145.513 10.9355 144.023 12.1489L143.542 11.2909C145.431 9.63552 146.831 7.35619 147.741 4.45285H144.517ZM148.378 6.79286C148.82 7.67686 149.561 8.49586 150.601 9.24986C151.563 8.49586 152.226 7.67686 152.59 6.79286H148.378ZM151.758 0.474855C152.668 1.16819 153.443 1.88319 154.085 2.61985L153.422 3.28285C152.893 2.61552 152.13 1.88319 151.134 1.08585L151.758 0.474855ZM161.261 2.71085V11.5769H160.351V10.8359H157.985V11.9539H157.075V2.71085H158.284C158.535 2.00019 158.721 1.24619 158.843 0.448855L159.779 0.578855C159.614 1.40219 159.41 2.11285 159.168 2.71085H161.261ZM157.985 9.96486H160.351V7.11786H157.985V9.96486ZM157.985 6.27286H160.351V3.59485H157.985V6.27286ZM163.523 5.72685C164.424 6.75819 165.135 7.70286 165.655 8.56086L164.914 9.08086C164.385 8.22285 163.67 7.26085 162.769 6.19486L163.523 5.72685ZM167.982 2.72386C167.982 7.04852 167.917 9.71786 167.787 10.7319C167.657 11.7285 167.05 12.2269 165.967 12.2269L164.641 12.1749L164.42 11.3169C164.966 11.3429 165.438 11.3559 165.837 11.3559C166.443 11.3559 166.799 11.0222 166.903 10.3549C166.981 9.62686 167.033 7.38652 167.059 3.63386H163.484C163.111 4.46585 162.678 5.20685 162.184 5.85686L161.625 5.11585C162.526 3.85919 163.146 2.29919 163.484 0.435854L164.407 0.552854C164.233 1.39352 164.043 2.11719 163.835 2.72386H167.982ZM169.802 2.98385H171.57V0.487854H172.519V2.98385H173.871V3.88085H172.519V4.94685C172.961 5.47552 173.403 6.04752 173.845 6.66286C174.625 5.80486 175.296 4.77352 175.86 3.56886L176.64 3.95885C176.05 5.22419 175.348 6.32052 174.534 7.24786L173.975 6.84486L174.274 7.27386L173.767 8.01486C173.29 7.10485 172.874 6.36386 172.519 5.79186V12.3179H171.57V5.72685C171.136 6.99219 170.573 8.14052 169.88 9.17186L169.477 8.15786C170.456 6.89252 171.149 5.46685 171.557 3.88085H169.802V2.98385ZM174.209 2.13885H177.394C177.134 1.47152 176.878 0.921188 176.627 0.487854L177.576 0.331855C177.853 0.886522 178.104 1.48886 178.33 2.13885H181.203V3.04885H174.209V2.13885ZM179.214 3.51686C180.167 4.68685 180.908 5.72252 181.437 6.62385L180.657 7.15686C180.154 6.24686 179.43 5.18519 178.486 3.97185L179.214 3.51686ZM179.695 6.12986C179.435 7.55986 178.971 8.73852 178.304 9.66586C179.144 10.4112 180.21 11.0309 181.502 11.5249L181.034 12.3569C179.656 11.8022 178.555 11.1435 177.732 10.3809C176.813 11.3515 175.647 12.0362 174.235 12.4349L173.702 11.5899C175.097 11.2259 176.215 10.5975 177.056 9.70486C176.224 8.72552 175.691 7.59019 175.457 6.29885L176.276 6.05185C176.44 7.14386 176.891 8.12319 177.628 8.98986C178.208 8.13185 178.603 7.12219 178.811 5.96085L179.695 6.12986ZM183.153 2.13885H186.208C186.476 1.55819 186.719 0.977521 186.936 0.396855L187.872 0.604855C187.707 1.02952 187.49 1.54085 187.222 2.13885H193.852V3.04885H186.767C186.177 4.15819 185.536 5.13752 184.843 5.98685H188.197V4.07585H189.146V5.98685H193.15V6.84486H189.146V8.75586H194.073V9.66586H189.146V12.4609H188.197V9.66586H182.958V8.75586H188.197V6.84486H183.868L183.66 5.98685C184.414 5.20685 185.111 4.22752 185.753 3.04885H183.153V2.13885ZM198.87 12.2399L198.649 11.2649C199.273 11.3169 199.862 11.3429 200.417 11.3429C200.963 11.3429 201.236 11.0612 201.236 10.4979V0.656855H202.198V10.7319C202.198 11.7372 201.717 12.2399 200.755 12.2399H198.87ZM198.714 4.03685C198.09 6.60219 197.271 8.56086 196.257 9.91286L195.451 9.19786C196.473 7.85452 197.249 6.01285 197.778 3.67285L198.714 4.03685ZM205.162 3.36085C206.21 5.75285 206.999 7.78952 207.528 9.47086L206.696 10.0429C206.124 8.23152 205.331 6.18186 204.317 3.89385L205.162 3.36085ZM214.132 0.942855H219.527V4.69985H214.132V0.942855ZM218.617 3.85485V1.77485H215.055V3.85485H218.617ZM213.625 5.90885H220.086V6.76686H217.252V8.43086H219.683V9.27586H217.252V11.0309H220.398V11.9149H213.105V11.0309H216.29V9.27586H213.924V8.43086H216.29V6.76686H213.625V5.90885ZM208.763 4.02385H210.661V2.13885C209.993 2.23419 209.426 2.30785 208.958 2.35986L208.776 1.47585C210.405 1.31985 211.844 1.04685 213.092 0.656855L213.417 1.54085C212.888 1.69685 212.268 1.84419 211.558 1.98285V4.02385H213.235V4.92085H211.558V5.60985C212.173 6.20785 212.793 6.87952 213.417 7.62486L212.897 8.40486C212.411 7.65086 211.965 7.00519 211.558 6.46785V12.3309H210.661V6.46785C210.21 7.73319 209.612 8.88152 208.867 9.91286L208.464 8.87286C209.452 7.71152 210.154 6.39419 210.57 4.92085H208.763V4.02385ZM228.003 0.409855C228.202 0.782521 228.38 1.15952 228.536 1.54085H233.242V2.39885H223.648V5.73986C223.596 8.50452 223.132 10.7102 222.257 12.3569L221.555 11.7329C222.3 10.2855 222.686 8.28786 222.712 5.73986V1.54085H227.6C227.435 1.18552 227.253 0.860522 227.054 0.565855L228.003 0.409855ZM226.872 4.86886C227.461 5.16352 228.033 5.48419 228.588 5.83086C229.359 5.38019 230.074 4.85152 230.733 4.24485H225V3.43886H231.903V4.11486C231.114 4.95552 230.247 5.68352 229.303 6.29885C229.485 6.41152 229.68 6.55019 229.888 6.71485L229.693 6.90986H232.995V7.63786C232.466 8.65186 231.868 9.50986 231.201 10.2119L230.499 9.65286C231.036 9.14152 231.534 8.51752 231.994 7.78086H229.004V11.2519C229.004 12.0232 228.618 12.4089 227.847 12.4089H225.936L225.741 11.5249C226.434 11.5682 227.032 11.5899 227.535 11.5899C227.89 11.5899 228.068 11.4035 228.068 11.0309V7.78086H224.246V6.90986H228.874C228.163 6.41586 227.309 5.91752 226.313 5.41485L226.872 4.86886ZM236.375 9.54886C236.999 9.54886 237.311 9.96919 237.311 10.8099C237.311 11.9279 236.821 12.7555 235.842 13.2929L235.491 12.7339C236.167 12.2919 236.531 11.7329 236.583 11.0569C236.513 11.0742 236.444 11.0829 236.375 11.0829C236.158 11.0829 235.967 11.0135 235.803 10.8749C235.655 10.7362 235.582 10.5542 235.582 10.3289C235.582 10.0689 235.655 9.87819 235.803 9.75686C235.95 9.61819 236.141 9.54886 236.375 9.54886ZM8.41894 25.3479L8.22394 26.1019C8.5706 27.6185 9.00394 28.9142 9.52394 29.9889C10.0959 28.6629 10.4079 27.1159 10.4599 25.3479H8.41894ZM9.08194 30.8859C8.57927 29.9239 8.14594 28.7885 7.78194 27.4799C7.5046 28.1559 7.22727 28.7235 6.94994 29.1829L6.35194 28.4549C7.17527 26.9729 7.73427 24.9709 8.02894 22.4489L8.88694 22.6049C8.82627 23.0902 8.73094 23.7055 8.60094 24.4509H12.2019V25.3479H11.3179C11.2573 27.5232 10.8326 29.3822 10.0439 30.9249C10.7633 32.0949 11.5909 32.9832 12.5269 33.5899L11.9939 34.3569C11.0579 33.7155 10.2519 32.8445 9.57594 31.7439C8.8826 32.8012 7.98127 33.7025 6.87194 34.4479L6.37794 33.6679C7.52194 32.9572 8.42327 32.0299 9.08194 30.8859ZM6.44294 33.0569C4.69227 33.5075 2.8376 33.8802 0.878936 34.1749L0.657936 33.2779C1.4466 33.1739 2.30894 33.0352 3.24494 32.8619V30.3919H1.15194V29.4819H3.24494V27.9739H4.18094V29.4819H6.13094V30.3919H4.18094V32.6799C5.0216 32.4979 5.7756 32.3115 6.44294 32.1209V33.0569ZM0.813936 23.0339H6.41694V23.9179H3.58294C3.06294 25.1919 2.58194 26.1539 2.13994 26.8039C3.22327 26.6652 4.2156 26.5049 5.11694 26.3229C4.82227 25.7942 4.55794 25.3392 4.32394 24.9579L5.03894 24.5029C5.7496 25.6209 6.30427 26.6175 6.70294 27.4929L5.93594 28.0259C5.8146 27.7225 5.66294 27.3889 5.48094 27.0249C4.09427 27.3109 2.5776 27.5449 0.930936 27.7269L0.709936 26.8949C0.839936 26.8775 0.965602 26.8472 1.08694 26.8039C1.49427 26.3705 2.0056 25.4085 2.62094 23.9179H0.813936V23.0339ZM18.4549 22.5009H19.4169V23.6969C19.3996 24.2515 19.3823 24.6719 19.3649 24.9579H24.3569C24.3049 27.3585 24.2183 29.2045 24.0969 30.4959C23.9669 31.8825 23.7459 32.8575 23.4339 33.4209C23.1393 33.9495 22.6583 34.2399 21.9909 34.2919H20.2359L19.9759 33.3819C20.5219 33.4079 21.0376 33.4209 21.5229 33.4209C22.2336 33.4209 22.7059 32.9572 22.9399 32.0299C23.1653 31.1112 23.3169 29.0529 23.3949 25.8549H19.2999C19.1179 27.7615 18.7409 29.3519 18.1689 30.6259C17.3976 32.2292 16.1453 33.4772 14.4119 34.3699L13.9049 33.5509C15.5949 32.6409 16.7779 31.4232 17.4539 29.8979C17.9046 28.7712 18.1993 27.4235 18.3379 25.8549H14.5419V24.9579H18.4029C18.4203 24.6892 18.4376 24.2689 18.4549 23.6969V22.5009ZM27.6069 22.9689H37.3699V23.8789H33.1189V27.4149H38.2799V28.3509H33.1189V32.9659C33.1189 33.8152 32.6813 34.2399 31.8059 34.2399H29.7779L29.5829 33.3429C30.4669 33.3775 31.0996 33.3949 31.4809 33.3949C31.9403 33.3949 32.1699 33.1739 32.1699 32.7319V28.3509H26.7879V27.4149H32.1699V23.8789H27.6069V22.9689ZM46.7559 29.4429C46.5133 29.9109 46.2446 30.3052 45.9499 30.6259L45.4039 29.9629C45.9759 29.3389 46.3573 28.5112 46.5479 27.4799L47.3279 27.6229C47.2499 27.9695 47.1719 28.2945 47.0939 28.5979H48.2899V27.3889H49.1999V28.5979H51.1369V29.4429H49.1999V31.0289H51.4099V31.8739H49.1999V34.4219H48.2899V31.8739H45.4559V31.0289H48.2899V29.4429H46.7559ZM45.5599 24.0739V23.2419H50.9809C50.9809 25.0012 50.8639 26.0585 50.6299 26.4139C50.3873 26.7605 49.9929 26.9339 49.4469 26.9339C49.2736 26.9339 48.9096 26.9165 48.3549 26.8819L48.1339 26.1019L49.2519 26.1669C49.6073 26.1582 49.8326 26.0412 49.9279 25.8159C50.0059 25.5992 50.0579 25.0185 50.0839 24.0739H48.1729C48.0429 24.6632 47.8523 25.1919 47.6009 25.6599C47.2543 26.2145 46.7516 26.7129 46.0929 27.1549L45.5469 26.4399C46.1276 26.1019 46.5653 25.6945 46.8599 25.2179C47.0593 24.8799 47.2023 24.4985 47.2889 24.0739H45.5599ZM41.1529 28.7669V30.3139L41.1399 30.4699H42.3359V28.7669H41.1529ZM41.1009 31.2629C40.9883 32.5455 40.6936 33.6202 40.2169 34.4869L39.5799 33.9019C40.0739 32.9312 40.3296 31.7049 40.3469 30.2229V26.2319C40.2863 26.2925 40.2429 26.3402 40.2169 26.3749L39.6449 25.6859C40.4163 24.8625 41.0576 23.7705 41.5689 22.4099L42.4139 22.6049L42.0889 23.4369H44.4029V24.0869C44.1343 24.6329 43.8439 25.1225 43.5319 25.5559H45.0919V33.3559C45.0919 33.9712 44.7756 34.2789 44.1429 34.2789H43.4019L43.1809 33.4989C43.5103 33.5335 43.7399 33.5509 43.8699 33.5509C44.1559 33.5509 44.2989 33.3905 44.2989 33.0699V31.2629H43.0899V34.2009H42.3359V31.2629H41.1009ZM42.5829 25.5559C42.8169 25.2179 43.0943 24.7672 43.4149 24.2039H41.7249C41.5169 24.6112 41.2396 25.0619 40.8929 25.5559H42.5829ZM44.2989 30.4699V28.7669H43.0899V30.4699H44.2989ZM44.2989 27.9869V26.3619H43.0899V27.9869H44.2989ZM42.3359 26.3619H41.1529V27.9869H42.3359V26.3619ZM56.6879 24.4119H59.3009V22.4749H60.2239V24.4119H63.1879V28.2339H64.3449V29.1179H60.4839C61.3159 30.9812 62.6679 32.4805 64.5399 33.6159L63.9159 34.3309C62.0266 33.0482 60.6573 31.4232 59.8079 29.4559C59.1753 31.7005 57.8406 33.3515 55.8039 34.4089L55.2189 33.6419C57.1689 32.7059 58.4169 31.1979 58.9629 29.1179H56.1549V28.2339H59.1579C59.2533 27.6099 59.3009 26.9859 59.3009 26.3619V25.3089H56.6879V24.4119ZM60.2239 25.3089V26.1539C60.2239 26.8905 60.1719 27.5839 60.0679 28.2339H62.2779V25.3089H60.2239ZM53.5159 22.9039C54.3826 24.0219 55.0499 25.0142 55.5179 25.8809L54.7509 26.4139C54.2656 25.5125 53.5983 24.5029 52.7489 23.3849L53.5159 22.9039ZM55.6609 28.6109C55.0369 30.5349 54.3349 32.3419 53.5549 34.0319L52.6709 33.6419C53.5116 31.8912 54.2353 30.1059 54.8419 28.2859L55.6609 28.6109ZM65.9699 23.8009H67.0359V27.8309H72.4049V23.8009H73.4709V33.0829H72.4049V28.7539H67.0359V33.0829H65.9699V23.8009ZM75.3264 23.8009H76.3924V29.5339C76.3924 30.4525 76.596 31.1415 77.0034 31.6009C77.4367 32.0862 78.1127 32.3289 79.0314 32.3289C79.9414 32.3289 80.6174 32.0862 81.0594 31.6009C81.4667 31.1242 81.6704 30.4352 81.6704 29.5339V23.8009H82.7364V29.5209C82.7364 30.7255 82.4287 31.6485 81.8134 32.2899C81.1807 32.9399 80.2534 33.2649 79.0314 33.2649C77.8094 33.2649 76.8864 32.9442 76.2624 32.3029C75.6384 31.6529 75.3264 30.7255 75.3264 29.5209V23.8009ZM87.7267 23.6189C88.784 23.6189 89.6073 23.8572 90.1967 24.3339C90.812 24.8279 91.1673 25.5645 91.2627 26.5439H90.2097C90.097 25.8765 89.837 25.3782 89.4297 25.0489C89.0223 24.7195 88.4373 24.5549 87.6747 24.5549C86.9727 24.5549 86.4353 24.6675 86.0627 24.8929C85.6207 25.1529 85.3997 25.5472 85.3997 26.0759C85.3997 26.5439 85.664 26.9209 86.1927 27.2069C86.418 27.3369 86.9857 27.5319 87.8957 27.7919C89.1177 28.1559 89.9237 28.4549 90.3137 28.6889C91.085 29.1569 91.4707 29.8112 91.4707 30.6519C91.4707 31.4665 91.1457 32.1079 90.4957 32.5759C89.837 33.0352 88.9617 33.2649 87.8697 33.2649C86.7777 33.2649 85.9197 33.0309 85.2957 32.5629C84.5677 31.9995 84.1647 31.1502 84.0867 30.0149H85.1397C85.235 30.8209 85.5167 31.4145 85.9847 31.7959C86.4267 32.1425 87.055 32.3159 87.8697 32.3159C88.6323 32.3159 89.2477 32.1729 89.7157 31.8869C90.1837 31.6009 90.4177 31.2109 90.4177 30.7169C90.4177 30.1362 90.11 29.6812 89.4947 29.3519C89.2607 29.2132 88.6063 28.9879 87.5317 28.6759C86.4397 28.3465 85.729 28.0952 85.3997 27.9219C84.689 27.5059 84.3337 26.9079 84.3337 26.1279C84.3337 25.3132 84.676 24.6849 85.3607 24.2429C85.976 23.8269 86.7647 23.6189 87.7267 23.6189ZM92.1055 23.8009H99.7105V24.7239H96.4345V33.0829H95.3815V24.7239H92.1055V23.8009ZM103.508 26.1799C104.592 26.1799 105.406 26.5439 105.952 27.2719C106.446 27.9219 106.706 28.8362 106.732 30.0149H101.428C101.48 30.7775 101.684 31.3625 102.039 31.7699C102.403 32.1859 102.906 32.3939 103.547 32.3939C104.093 32.3939 104.54 32.2552 104.886 31.9779C105.164 31.7525 105.389 31.4015 105.562 30.9249H106.602C106.446 31.5662 106.143 32.0949 105.692 32.5109C105.12 33.0135 104.405 33.2649 103.547 33.2649C102.585 33.2649 101.814 32.9485 101.233 32.3159C100.644 31.6745 100.349 30.8079 100.349 29.7159C100.349 28.7105 100.631 27.8829 101.194 27.2329C101.766 26.5309 102.538 26.1799 103.508 26.1799ZM103.534 27.0509C102.936 27.0509 102.455 27.2459 102.091 27.6359C101.736 28.0172 101.524 28.5415 101.454 29.2089H105.653C105.523 27.7702 104.817 27.0509 103.534 27.0509ZM110.901 26.1799C111.274 26.1799 111.582 26.2319 111.824 26.3359V27.3759C111.512 27.2805 111.179 27.2329 110.823 27.2329C110.295 27.2329 109.857 27.4625 109.51 27.9219C109.155 28.3552 108.977 28.8882 108.977 29.5209V33.0829H107.95V26.3619H108.977V27.5319C109.159 27.1332 109.393 26.8255 109.679 26.6089C110.035 26.3229 110.442 26.1799 110.901 26.1799ZM113.556 29.6899H117.924V22.5529H118.86V29.6899H123.241V30.5739H118.86V32.9269H123.995V33.8369H112.789V32.9269H117.924V30.5739H113.556V29.6899ZM121.421 26.4919C121.031 27.3759 120.546 28.1342 119.965 28.7669L119.367 28.0389C120.373 26.9035 121.053 25.3652 121.408 23.4239L122.305 23.5799C122.149 24.3772 121.946 25.1225 121.694 25.8159C122.422 26.4399 123.163 27.1549 123.917 27.9609L123.371 28.7799C122.574 27.7659 121.924 27.0032 121.421 26.4919ZM116.013 23.5409C115.823 24.3902 115.597 25.1355 115.337 25.7769C116.039 26.4529 116.733 27.1895 117.417 27.9869L116.858 28.8059C116.174 27.8352 115.567 27.0465 115.038 26.4399C114.562 27.4192 113.946 28.2729 113.192 29.0009L112.594 28.2729C113.842 27.0769 114.683 25.4475 115.116 23.3849L116.013 23.5409ZM126.036 24.1389H129.091C129.36 23.5582 129.603 22.9775 129.819 22.3969L130.755 22.6049C130.591 23.0295 130.374 23.5409 130.105 24.1389H136.735V25.0489H129.65C129.061 26.1582 128.42 27.1375 127.726 27.9869H131.08V26.0759H132.029V27.9869H136.033V28.8449H132.029V30.7559H136.956V31.6659H132.029V34.4609H131.08V31.6659H125.841V30.7559H131.08V28.8449H126.751L126.543 27.9869C127.297 27.2069 127.995 26.2275 128.636 25.0489H126.036V24.1389ZM140.635 27.8959V23.4629H144.964C144.774 23.0989 144.579 22.7782 144.379 22.5009L145.341 22.3319C145.541 22.7045 145.718 23.0815 145.874 23.4629H149.995V24.3469H141.545V27.7269C141.493 30.4655 140.921 32.6625 139.829 34.3179L139.127 33.6939C139.899 32.5412 140.375 31.0115 140.557 29.1049C139.959 29.6335 139.34 30.1015 138.698 30.5089L138.438 29.5989C139.201 29.1742 139.929 28.6629 140.622 28.0649L140.635 27.8959ZM139.166 24.4769C139.626 25.2655 140.016 26.0889 140.336 26.9469L139.569 27.2719C139.205 26.2925 138.824 25.4649 138.425 24.7889L139.166 24.4769ZM147.486 34.2399L147.265 33.4079L148.253 33.4469C148.609 33.4469 148.786 33.2865 148.786 32.9659V32.1599H146.485V34.1229H145.614V32.1599H143.3V34.3309H142.429V27.7659H145.484C144.947 27.4019 144.358 27.0509 143.716 26.7129L144.288 26.1669C144.93 26.5135 145.502 26.8645 146.004 27.2199C146.646 26.9079 147.304 26.5309 147.98 26.0889H142.468V25.2569H149.28V25.9979C148.526 26.6219 147.651 27.1895 146.654 27.7009C146.689 27.7182 146.719 27.7399 146.745 27.7659H149.657V33.1479C149.657 33.8759 149.28 34.2399 148.526 34.2399H147.486ZM143.3 31.4059H145.614V30.3789H143.3V31.4059ZM146.485 30.3789V31.4059H148.786V30.3789H146.485ZM143.3 29.6249H145.614V28.5329H143.3V29.6249ZM146.485 28.5329V29.6249H148.786V28.5329H146.485ZM156.716 22.4879H157.639V23.7489H162.683V24.6329H157.639V26.2839H161.786V30.4569H153.18V26.2839H156.716V22.4879ZM160.85 29.5859V27.1679H154.116V29.5859H160.85ZM153.947 31.4059C153.445 32.5499 152.877 33.5292 152.244 34.3439L151.477 33.7849C152.127 33.0222 152.686 32.1035 153.154 31.0289L153.947 31.4059ZM155.988 31.4059C156.248 32.2552 156.482 33.1869 156.69 34.2009L155.754 34.4089C155.572 33.3169 155.36 32.3765 155.117 31.5879L155.988 31.4059ZM158.705 31.2759C159.087 32.1425 159.425 33.1089 159.719 34.1749L158.796 34.3829C158.536 33.2735 158.211 32.2985 157.821 31.4579L158.705 31.2759ZM161.37 31.0159C162.168 32.0645 162.8 33.0135 163.268 33.8629L162.488 34.4089C162.046 33.5509 161.422 32.5802 160.616 31.4969L161.37 31.0159ZM167.142 31.2369C167.602 31.2369 168 31.3929 168.338 31.7049C168.668 32.0169 168.832 32.4069 168.832 32.8749C168.832 33.3342 168.668 33.7199 168.338 34.0319C168 34.3439 167.602 34.4999 167.142 34.4999C166.674 34.4999 166.276 34.3482 165.946 34.0449C165.617 33.7415 165.452 33.3515 165.452 32.8749C165.452 32.3982 165.617 32.0082 165.946 31.7049C166.276 31.3929 166.674 31.2369 167.142 31.2369ZM167.142 31.9129C166.865 31.9129 166.635 32.0082 166.453 32.1989C166.254 32.3722 166.154 32.5975 166.154 32.8749C166.154 33.1435 166.254 33.3645 166.453 33.5379C166.644 33.7285 166.874 33.8239 167.142 33.8239C167.394 33.8239 167.623 33.7285 167.831 33.5379C168.031 33.3559 168.13 33.1349 168.13 32.8749C168.13 32.6062 168.031 32.3809 167.831 32.1989C167.641 32.0082 167.411 31.9129 167.142 31.9129ZM178.036 24.1389H181.091C181.36 23.5582 181.603 22.9775 181.819 22.3969L182.755 22.6049C182.591 23.0295 182.374 23.5409 182.105 24.1389H188.735V25.0489H181.65C181.061 26.1582 180.42 27.1375 179.726 27.9869H183.08V26.0759H184.029V27.9869H188.033V28.8449H184.029V30.7559H188.956V31.6659H184.029V34.4609H183.08V31.6659H177.841V30.7559H183.08V28.8449H178.751L178.543 27.9869C179.297 27.2069 179.995 26.2275 180.636 25.0489H178.036V24.1389ZM195.339 23.1379H202.164V24.0219H200.11C200.11 24.7759 200.097 25.4519 200.071 26.0499H201.839V32.9919C201.839 33.8325 201.48 34.2529 200.76 34.2529H199.486L199.265 33.4079L200.487 33.4469C200.843 33.4469 201.02 33.2302 201.02 32.7969V26.8949H200.045C200.028 27.0769 200.011 27.3715 199.993 27.7789L199.915 28.6499C200.253 29.2739 200.613 30.0235 200.994 30.8989L200.552 31.5619C200.301 30.8252 200.05 30.1449 199.798 29.5209C199.59 30.7775 199.252 31.8695 198.784 32.7969L198.277 32.1469C198.841 30.9682 199.174 29.3865 199.278 27.4019L199.304 26.8949H198.16C198.134 27.1029 198.121 27.3065 198.121 27.5059C198.095 27.9392 198.056 28.3509 198.004 28.7409C198.308 29.2262 198.572 29.6942 198.797 30.1449L198.407 30.7559C198.13 30.1145 197.952 29.7159 197.874 29.5599C197.675 30.5652 197.389 31.4405 197.016 32.1859L196.509 31.5359C197.021 30.4525 197.324 28.9835 197.419 27.1289L197.432 26.8949H196.405V34.3699H195.586V26.0499H197.458L197.497 24.0219H195.339V23.1379ZM198.186 26.0499H199.33L199.356 24.0219H198.225L198.186 26.0499ZM192.908 26.0499H193.766V28.0129H195.027V28.8319H193.766V30.6129L195.144 30.2359V31.0939C194.676 31.2412 194.217 31.3712 193.766 31.4839V34.4089H192.908V31.6789C192.172 31.8349 191.383 31.9779 190.542 32.1079L190.425 31.2239C191.439 31.0765 192.267 30.9379 192.908 30.8079V28.8319H190.854L190.659 28.0259C190.997 27.2719 191.327 26.2839 191.647 25.0619H190.646V24.1779H191.855C191.959 23.6839 192.076 23.1032 192.206 22.4359L193.103 22.5789L192.765 24.1779H195.079V25.0619H192.544C192.267 26.1279 191.951 27.1115 191.595 28.0129H192.908V26.0499ZM214.696 23.8139V26.4139H213.747V24.6849H205.037V26.4789H204.088V23.8139H209.028C208.846 23.3025 208.66 22.8605 208.469 22.4879L209.457 22.3319C209.613 22.7045 209.778 23.1985 209.951 23.8139H214.696ZM205.687 27.1809C206.684 27.5709 207.572 28.0302 208.352 28.5589L207.871 29.2999C207.005 28.6759 206.121 28.1992 205.219 27.8699L205.687 27.1809ZM206.467 25.2049C207.377 25.5515 208.244 25.9979 209.067 26.5439L208.599 27.2849C207.724 26.6609 206.862 26.1885 206.012 25.8679L206.467 25.2049ZM210.406 25.3479H211.355V26.7909C211.312 27.9262 211.126 28.9229 210.796 29.7809H215.034V30.6519H210.393C210.289 30.8425 210.151 31.0549 209.977 31.2889C211.763 31.9302 213.427 32.7189 214.969 33.6549L214.449 34.4609C212.794 33.4122 211.117 32.5715 209.418 31.9389C208.37 32.9615 206.727 33.7762 204.491 34.3829L203.984 33.5899C206.385 32.9485 208.053 32.1079 208.989 31.0679L209.288 30.6519H203.711V29.7809H209.769C210.151 28.9315 210.363 27.9349 210.406 26.7909V25.3479ZM220.702 23.4369V33.0179H219.792V32.1469H217.868V33.3299H216.958V23.4369H220.702ZM217.868 31.2759H219.792V28.1429H217.868V31.2759ZM217.868 27.2719H219.792V24.2949H217.868V27.2719ZM222.574 27.3109C223.398 28.5589 224.017 29.6249 224.433 30.5089L223.653 31.0549C223.177 30.0409 222.561 28.9532 221.807 27.7919L222.574 27.3109ZM223.263 34.2529L223.068 33.3429C224.074 33.3775 224.793 33.3949 225.226 33.3949C225.608 33.3949 225.798 33.1912 225.798 32.7839V25.7509H221.3V24.8539H225.798V22.5659H226.747V24.8539H228.346V25.7509H226.747V33.0179C226.747 33.8412 226.344 34.2529 225.538 34.2529H223.263ZM231.583 26.3229H239.227V27.2069H235.925V29.4949H239.799V30.3789H235.925V33.0699C236.87 33.2085 237.971 33.2822 239.227 33.2909C239.886 33.2909 240.566 33.2649 241.268 33.2129L241.099 34.1489H239.643C237.035 34.1489 235.154 33.9062 234.001 33.4209C233.135 33.0135 232.437 32.3895 231.908 31.5489C231.406 32.6669 230.782 33.6029 230.036 34.3569L229.438 33.6159C230.678 32.2985 231.518 30.5175 231.96 28.2729L232.87 28.4289C232.723 29.1742 232.524 29.9152 232.272 30.6519C232.896 31.7612 233.676 32.4675 234.612 32.7709L234.989 32.8749V27.2069H231.583V26.3229ZM240.709 23.7879V26.5569H239.799V24.6459H230.985V26.6219H230.075V23.7879H235.041C234.859 23.3459 234.643 22.9169 234.391 22.5009L235.392 22.3449C235.626 22.8302 235.826 23.3112 235.99 23.7879H240.709ZM4.40194 44.7869C4.06394 45.8095 3.6436 46.7629 3.14094 47.6469V56.4089H2.20494V49.0769C1.76294 49.6662 1.29494 50.2209 0.800936 50.7409L0.501936 49.7399C1.8886 48.1712 2.89827 46.3859 3.53094 44.3839L4.40194 44.7869ZM4.33694 46.5549H7.83394C7.6606 45.9135 7.44827 45.2809 7.19694 44.6569L8.18494 44.4879C8.39294 45.0859 8.58794 45.7749 8.76994 46.5549H12.1629V47.4519H4.33694V46.5549ZM4.11594 54.8489H8.58794C9.2466 53.1329 9.82294 50.9489 10.3169 48.2969L11.2139 48.5309C10.7633 50.8795 10.2086 52.9855 9.54994 54.8489H12.5009V55.7719H4.11594V54.8489ZM5.93594 48.4399C6.4386 50.1125 6.8936 52.0322 7.30094 54.1989L6.42994 54.4329C6.08327 52.4915 5.6326 50.5805 5.07794 48.6999L5.93594 48.4399ZM15.2829 53.2629C15.8203 53.6442 16.3186 54.0775 16.7779 54.5629C17.2026 54.9962 17.5753 55.4425 17.8959 55.9019L17.2459 56.4479C16.9599 56.0405 16.5916 55.5985 16.1409 55.1219C15.6903 54.6279 15.2093 54.1902 14.6979 53.8089L15.2829 53.2629ZM26.8269 46.9839H28.5949V44.4879H29.5439V46.9839H30.8959V47.8809H29.5439V48.9469C29.9859 49.4755 30.4279 50.0475 30.8699 50.6629C31.6499 49.8049 32.3216 48.7735 32.8849 47.5689L33.6649 47.9589C33.0756 49.2242 32.3736 50.3205 31.5589 51.2479L30.9999 50.8449L31.2989 51.2739L30.7919 52.0149C30.3153 51.1049 29.8993 50.3639 29.5439 49.7919V56.3179H28.5949V49.7269C28.1616 50.9922 27.5983 52.1405 26.9049 53.1719L26.5019 52.1579C27.4813 50.8925 28.1746 49.4669 28.5819 47.8809H26.8269V46.9839ZM31.2339 46.1389H34.4189C34.1589 45.4715 33.9033 44.9212 33.6519 44.4879L34.6009 44.3319C34.8783 44.8865 35.1296 45.4889 35.3549 46.1389H38.2279V47.0489H31.2339V46.1389ZM36.2389 47.5169C37.1923 48.6869 37.9333 49.7225 38.4619 50.6239L37.6819 51.1569C37.1793 50.2469 36.4556 49.1852 35.5109 47.9719L36.2389 47.5169ZM36.7199 50.1299C36.4599 51.5599 35.9963 52.7385 35.3289 53.6659C36.1696 54.4112 37.2356 55.0309 38.5269 55.5249L38.0589 56.3569C36.6809 55.8022 35.5803 55.1435 34.7569 54.3809C33.8383 55.3515 32.6726 56.0362 31.2599 56.4349L30.7269 55.5899C32.1223 55.2259 33.2403 54.5975 34.0809 53.7049C33.2489 52.7255 32.7159 51.5902 32.4819 50.2989L33.3009 50.0519C33.4656 51.1439 33.9163 52.1232 34.6529 52.9899C35.2336 52.1319 35.6279 51.1222 35.8359 49.9609L36.7199 50.1299ZM40.1779 46.1389H43.2329C43.5016 45.5582 43.7443 44.9775 43.9609 44.3969L44.8969 44.6049C44.7323 45.0295 44.5156 45.5409 44.2469 46.1389H50.8769V47.0489H43.7919C43.2026 48.1582 42.5613 49.1375 41.8679 49.9869H45.2219V48.0759H46.1709V49.9869H50.1749V50.8449H46.1709V52.7559H51.0979V53.6659H46.1709V56.4609H45.2219V53.6659H39.9829V52.7559H45.2219V50.8449H40.8929L40.6849 49.9869C41.4389 49.2069 42.1366 48.2275 42.7779 47.0489H40.1779V46.1389ZM53.2169 44.9819H57.2209V49.0639H55.9209V51.1569H57.2729V52.0409H55.9209V54.4589C56.6229 54.2335 57.1733 54.0472 57.5719 53.8999V54.8359C56.2286 55.3385 54.6469 55.8065 52.8269 56.2399L52.5669 55.3299L53.2559 55.1739V50.4549H54.0879V54.9659L55.0499 54.7189V49.0639H53.2169V44.9819ZM56.3239 48.2059V45.8399H54.1269V48.2059H56.3239ZM63.4219 51.5209V56.3439H62.5249V55.7719H59.2489V56.3439H58.3519V51.5209H63.4219ZM59.2489 54.9139H62.5249V52.3659H59.2489V54.9139ZM60.5749 44.6049C60.4796 44.9082 60.3626 45.2245 60.2239 45.5539H63.4479V46.2299C63.0059 47.3132 62.3603 48.2752 61.5109 49.1159C62.3776 49.8265 63.4133 50.3682 64.6179 50.7409L64.0849 51.5079C62.8023 51.0919 61.7233 50.4939 60.8479 49.7139C59.9639 50.4245 58.9153 51.0399 57.7019 51.5599L57.1429 50.8059C58.3303 50.3292 59.3529 49.7529 60.2109 49.0769C59.7516 48.5742 59.3573 48.0239 59.0279 47.4259C58.7159 47.7899 58.3389 48.1495 57.8969 48.5049L57.3379 47.7639C58.4819 46.8625 59.2619 45.7532 59.6779 44.4359L60.5749 44.6049ZM59.5609 46.7109C59.9249 47.4129 60.3583 48.0152 60.8609 48.5179C61.5369 47.8592 62.0699 47.1485 62.4599 46.3859H59.7819L59.5609 46.7109ZM70.2079 54.6929C68.9166 55.1955 67.4606 55.5942 65.8399 55.8889L65.7229 54.9789C67.3956 54.7015 68.8906 54.3072 70.2079 53.7959V54.6929ZM68.7909 44.7479C68.1323 46.4205 67.4606 47.7725 66.7759 48.8039C67.2786 48.7605 67.8636 48.6869 68.5309 48.5829L69.2849 47.1009L70.1169 47.4129C68.9903 49.5795 68.0369 51.1395 67.2569 52.0929C68.1929 51.9109 69.1289 51.6639 70.0649 51.3519V52.1969C68.6696 52.6475 67.3653 52.9552 66.1519 53.1199L65.8919 52.2619C66.0653 52.1839 66.2083 52.0929 66.3209 51.9889C66.8063 51.4862 67.3869 50.6325 68.0629 49.4279C67.5863 49.4972 66.8626 49.5925 65.8919 49.7139L65.6709 48.8559C65.8096 48.8039 65.9396 48.6912 66.0609 48.5179C66.7629 47.3305 67.3739 45.9569 67.8939 44.3969L68.7909 44.7479ZM76.5129 46.7629L76.6429 47.6209L73.3019 48.0889C73.3279 48.7042 73.3669 49.2935 73.4189 49.8569L76.8639 49.3109L77.0069 50.1949L73.5229 50.7409C73.5489 50.9402 73.5836 51.1655 73.6269 51.4169C73.7569 52.0755 73.9129 52.6692 74.0949 53.1979C74.8143 52.5305 75.4383 51.7939 75.9669 50.9879L76.7079 51.4949C76.0059 52.5175 75.2606 53.3712 74.4719 54.0559L74.6149 54.3029C75.0483 54.9442 75.4296 55.2649 75.7589 55.2649C76.1056 55.2649 76.3959 54.5672 76.6299 53.1719L77.4229 53.6919C77.0589 55.4165 76.5389 56.2789 75.8629 56.2789C75.2389 56.2529 74.6496 55.8542 74.0949 55.0829C73.9649 54.9009 73.8653 54.7405 73.7959 54.6019C72.8253 55.3212 71.7896 55.8499 70.6889 56.1879L70.1429 55.4339C71.3476 55.0439 72.4266 54.4935 73.3799 53.7829C73.1373 53.2195 72.9379 52.5869 72.7819 51.8849C72.7299 51.6422 72.6693 51.3085 72.5999 50.8839L70.2599 51.2609L70.1299 50.3769L72.4829 49.9999C72.4223 49.4452 72.3833 48.8515 72.3659 48.2189L70.4939 48.4919L70.3509 47.6339L72.3399 47.3479V44.4619H73.2759V47.2179L76.5129 46.7629ZM74.7319 44.4229C75.3906 45.0469 75.9019 45.5842 76.2659 46.0349L75.5379 46.5419C75.1826 46.0479 74.6713 45.4932 74.0039 44.8779L74.7319 44.4229ZM80.2829 53.2629C80.8203 53.6442 81.3186 54.0775 81.7779 54.5629C82.2026 54.9962 82.5753 55.4425 82.8959 55.9019L82.2459 56.4479C81.9599 56.0405 81.5916 55.5985 81.1409 55.1219C80.6903 54.6279 80.2093 54.1902 79.6979 53.8089L80.2829 53.2629ZM94.1669 48.1409H98.5349V46.5549H99.4319V48.1409H101.044V48.9859H99.4319V52.9249C99.4319 53.6962 99.0636 54.0819 98.3269 54.0819H96.8449L96.6499 53.2109C97.1873 53.2542 97.6423 53.2759 98.0149 53.2759C98.3616 53.2759 98.5349 53.0809 98.5349 52.6909V49.1159C97.5209 50.8492 96.1559 52.2185 94.4399 53.2239L93.9459 52.3919C95.5579 51.5685 96.8449 50.4332 97.8069 48.9859H94.1669V48.1409ZM102.799 45.0339V56.3959H101.889V55.8109H93.1789V56.3959H92.2689V45.0339H102.799ZM93.1789 54.9529H101.889V45.8919H93.1789V54.9529ZM105.152 45.0079H109.091V45.7489C108.666 46.9709 108.194 48.1929 107.674 49.4149C108.523 50.5589 108.978 51.5945 109.039 52.5219C109.039 53.0765 108.905 53.4795 108.636 53.7309C108.281 54.0429 107.648 54.2032 106.738 54.2119L106.426 53.2629C106.703 53.2975 106.872 53.3149 106.933 53.3149C107.392 53.2889 107.709 53.2195 107.882 53.1069C108.047 52.9855 108.129 52.7905 108.129 52.5219C108.129 51.6465 107.665 50.6585 106.738 49.5579C107.336 48.2665 107.813 47.0445 108.168 45.8919H106.062V56.3959H105.152V45.0079ZM112.835 44.5529C112.835 45.7575 112.779 46.9362 112.666 48.0889C113.42 51.2002 114.72 53.6615 116.566 55.4729L115.89 56.2659C114.33 54.6105 113.16 52.5695 112.38 50.1429L112.237 50.8189C111.743 53.0549 110.586 54.8879 108.766 56.3179L108.142 55.5769C109.728 54.3029 110.781 52.6995 111.301 50.7669C111.7 49.1202 111.903 47.0489 111.912 44.5529H112.835ZM125.263 48.4139V52.3659H120.57V54.7709C120.57 55.1435 120.782 55.3299 121.207 55.3299H127.408C127.711 55.3125 127.919 55.1825 128.032 54.9399C128.127 54.7405 128.21 54.2292 128.279 53.4059L129.163 53.6919C129.085 54.5152 128.99 55.0872 128.877 55.4079C128.686 55.9192 128.288 56.1879 127.681 56.2139H120.856C120.041 56.2139 119.634 55.8455 119.634 55.1089V48.4139H125.263ZM120.57 51.5079H124.327V49.2719H120.57V51.5079ZM121.779 44.5529C121.614 44.9429 121.415 45.3762 121.181 45.8529H128.435C128.435 49.1375 128.37 51.1699 128.24 51.9499C128.127 52.7819 127.62 53.1979 126.719 53.1979C126.563 53.1979 126.29 53.1849 125.9 53.1589L125.679 52.3139C126.147 52.3485 126.45 52.3659 126.589 52.3659C127.022 52.3659 127.269 52.1059 127.33 51.5859C127.408 51.0659 127.46 49.4539 127.486 46.7499H120.687C120.028 47.8332 119.296 48.7649 118.49 49.5449L117.84 48.7649C119.053 47.6555 120.054 46.1822 120.843 44.3449L121.779 44.5529ZM131.178 46.1389H134.233C134.502 45.5582 134.744 44.9775 134.961 44.3969L135.897 44.6049C135.732 45.0295 135.516 45.5409 135.247 46.1389H141.877V47.0489H134.792C134.203 48.1582 133.561 49.1375 132.868 49.9869H136.222V48.0759H137.171V49.9869H141.175V50.8449H137.171V52.7559H142.098V53.6659H137.171V56.4609H136.222V53.6659H130.983V52.7559H136.222V50.8449H131.893L131.685 49.9869C132.439 49.2069 133.137 48.2275 133.778 47.0489H131.178V46.1389ZM145.283 53.2629C145.82 53.6442 146.319 54.0775 146.778 54.5629C147.203 54.9962 147.575 55.4425 147.896 55.9019L147.246 56.4479C146.96 56.0405 146.592 55.5985 146.141 55.1219C145.69 54.6279 145.209 54.1902 144.698 53.8089L145.283 53.2629ZM160.129 45.0729C159.93 45.6362 159.7 46.1952 159.44 46.7499H162.066V44.4749H163.028V46.7499H167.383V47.6599H163.028V48.5049C163.002 49.1635 162.946 49.7485 162.859 50.2599H168.228V51.1569H163.392C164.033 53.0289 165.71 54.4849 168.423 55.5249L167.903 56.3439C165.069 55.1219 163.301 53.4622 162.599 51.3649C162.356 52.2229 162.005 52.9639 161.546 53.5879C160.645 54.7752 159.171 55.6982 157.126 56.3569L156.619 55.5639C158.664 54.8792 160.086 54.0039 160.883 52.9379C161.23 52.4092 161.498 51.8155 161.689 51.1569H156.853V50.2599H161.884C161.979 49.7745 162.04 49.1895 162.066 48.5049V47.6599H158.959C158.482 48.4485 157.971 49.0942 157.425 49.5969L156.632 48.9079C157.793 47.8765 158.669 46.4855 159.258 44.7349L160.129 45.0729ZM176.444 44.6829C176.297 45.4022 176.136 46.0262 175.963 46.5549H181.007C181.007 50.8969 180.942 53.5749 180.812 54.5889C180.673 55.7329 179.971 56.3049 178.706 56.3049C178.524 56.3049 178.199 56.2919 177.731 56.2659L177.51 55.4209C178.065 55.4555 178.42 55.4729 178.576 55.4729C179.373 55.4729 179.828 55.0569 179.941 54.2249C180.028 53.5315 180.084 51.2782 180.11 47.4649H179.226C178.94 49.6489 178.546 51.3649 178.043 52.6129C177.436 53.9822 176.548 55.1999 175.378 56.2659L174.806 55.5249C175.881 54.5542 176.695 53.4622 177.25 52.2489C177.753 51.0442 178.13 49.4495 178.381 47.4649H177.367C176.847 50.2902 175.859 52.3485 174.403 53.6399L173.792 52.9379C175.127 51.8025 176.041 49.9782 176.535 47.4649H175.638C175.291 48.2882 174.897 48.9729 174.455 49.5189L173.766 48.9339C174.598 47.8939 175.196 46.3989 175.56 44.4489L176.444 44.6829ZM170.854 48.0889C170.698 48.7909 170.525 49.4235 170.334 49.9869L169.515 49.7529C170 48.3922 170.278 46.9449 170.347 45.4109L171.166 45.4759C171.14 46.0565 171.088 46.6242 171.01 47.1789H171.92V44.4749H172.83V47.1789H173.922V48.0889H172.83V51.2089C173.185 51.0442 173.532 50.8709 173.87 50.6889V51.5729C173.645 51.6942 173.298 51.8675 172.83 52.0929V56.3829H171.92V52.4829C171.183 52.7689 170.503 53.0115 169.879 53.2109L169.658 52.3009C170.438 52.1189 171.192 51.8849 171.92 51.5989V48.0889H170.854ZM193.76 50.9619V56.3569H192.837V55.8239H188.651V56.3569H187.728V50.9619H193.76ZM188.651 54.9269H192.837V51.8719H188.651V54.9269ZM182.996 56.2399L182.801 55.3299C183.286 55.3645 183.642 55.3819 183.867 55.3819C184.214 55.3819 184.387 55.2085 184.387 54.8619V51.6639C183.806 51.8979 183.252 52.1015 182.723 52.2749L182.476 51.2999C183.065 51.1612 183.702 50.9619 184.387 50.7019V47.7509H182.723V46.8539H184.387V44.4749H185.323V46.8539H186.857V47.7509H185.323V50.3119C185.843 50.0692 186.311 49.8309 186.727 49.5969V50.5459C186.311 50.7799 185.843 51.0182 185.323 51.2609V55.0959C185.323 55.8585 184.946 56.2399 184.192 56.2399H182.996ZM187.455 45.8919V45.0079H193.942C193.933 47.4605 193.79 48.9339 193.513 49.4279C193.227 49.9132 192.75 50.1559 192.083 50.1559C191.927 50.1559 191.589 50.1385 191.069 50.1039L190.848 49.2719L191.888 49.3369C192.365 49.3109 192.668 49.1159 192.798 48.7519C192.928 48.3879 193.006 47.4345 193.032 45.8919H190.575C190.376 46.9665 190.085 47.8419 189.704 48.5179C189.253 49.2459 188.577 49.9089 187.676 50.5069L187.117 49.7659C187.914 49.2632 188.504 48.7172 188.885 48.1279C189.223 47.5645 189.483 46.8192 189.665 45.8919H187.455ZM201.144 45.0079H207.306V45.8919H204.719C204.65 46.4119 204.567 46.8885 204.472 47.3219H206.903V53.4579H205.993V48.1799H202.626V53.5619H201.703V47.3219H203.562C203.666 46.8452 203.744 46.3685 203.796 45.8919H201.144V45.0079ZM205.278 53.4969C206.127 54.2162 206.873 54.9745 207.514 55.7719L206.851 56.4349C206.314 55.7069 205.577 54.9312 204.641 54.1079L205.278 53.4969ZM203.848 49.0379H204.732V51.2739C204.706 52.6605 204.437 53.7742 203.926 54.6149C203.432 55.3862 202.626 55.9929 201.508 56.4349L201.014 55.6419C202.071 55.2345 202.808 54.6929 203.224 54.0169C203.614 53.3149 203.822 52.4005 203.848 51.2739V49.0379ZM198.83 44.5789C199.714 45.6015 200.572 46.6935 201.404 47.8549L200.78 48.5179C199.957 47.2699 199.22 46.2559 198.57 45.4759C197.833 46.8019 196.975 48.0109 195.996 49.1029L195.463 48.3489C196.416 47.3002 197.305 46.0435 198.128 44.5789H198.83ZM196.204 50.2599H200.858V51.0399C200.295 52.2272 199.653 53.2845 198.934 54.2119C199.463 54.7145 199.926 55.1955 200.325 55.6549L199.649 56.3179C198.86 55.3299 197.79 54.2899 196.438 53.1979L197.062 52.5999C197.452 52.9119 197.872 53.2629 198.323 53.6529C198.834 52.9682 199.346 52.1275 199.857 51.1309H196.204V50.2599ZM198.401 47.3999C198.947 48.1365 199.385 48.8039 199.714 49.4019L199.038 49.8829C198.726 49.2762 198.288 48.5872 197.725 47.8159L198.401 47.3999ZM209.75 53.5359C209.975 53.5359 210.162 53.6095 210.309 53.7569C210.465 53.8955 210.543 54.0775 210.543 54.3029C210.543 54.5282 210.465 54.7145 210.309 54.8619C210.144 55.0092 209.958 55.0829 209.75 55.0829C209.542 55.0829 209.356 55.0092 209.191 54.8619C209.035 54.7059 208.957 54.5195 208.957 54.3029C208.957 54.0775 209.035 53.8955 209.191 53.7569C209.338 53.6095 209.525 53.5359 209.75 53.5359ZM213.178 53.5359C213.403 53.5359 213.589 53.6095 213.737 53.7569C213.893 53.8955 213.971 54.0775 213.971 54.3029C213.971 54.5282 213.893 54.7145 213.737 54.8619C213.572 55.0092 213.386 55.0829 213.178 55.0829C212.97 55.0829 212.783 55.0092 212.619 54.8619C212.463 54.7059 212.385 54.5195 212.385 54.3029C212.385 54.0775 212.463 53.8955 212.619 53.7569C212.766 53.6095 212.952 53.5359 213.178 53.5359ZM216.605 53.5359C216.831 53.5359 217.017 53.6095 217.164 53.7569C217.32 53.8955 217.398 54.0775 217.398 54.3029C217.398 54.5282 217.32 54.7145 217.164 54.8619C217 55.0092 216.813 55.0829 216.605 55.0829C216.397 55.0829 216.211 55.0092 216.046 54.8619C215.89 54.7059 215.812 54.5195 215.812 54.3029C215.812 54.0775 215.89 53.8955 216.046 53.7569C216.194 53.6095 216.38 53.5359 216.605 53.5359ZM220.033 53.5359C220.258 53.5359 220.445 53.6095 220.592 53.7569C220.748 53.8955 220.826 54.0775 220.826 54.3029C220.826 54.5282 220.748 54.7145 220.592 54.8619C220.427 55.0092 220.241 55.0829 220.033 55.0829C219.825 55.0829 219.639 55.0092 219.474 54.8619C219.318 54.7059 219.24 54.5195 219.24 54.3029C219.24 54.0775 219.318 53.8955 219.474 53.7569C219.621 53.6095 219.808 53.5359 220.033 53.5359ZM223.461 53.5359C223.686 53.5359 223.873 53.6095 224.02 53.7569C224.176 53.8955 224.254 54.0775 224.254 54.3029C224.254 54.5282 224.176 54.7145 224.02 54.8619C223.855 55.0092 223.669 55.0829 223.461 55.0829C223.253 55.0829 223.067 55.0092 222.902 54.8619C222.746 54.7059 222.668 54.5195 222.668 54.3029C222.668 54.0775 222.746 53.8955 222.902 53.7569C223.049 53.6095 223.236 53.5359 223.461 53.5359ZM226.889 53.5359C227.114 53.5359 227.3 53.6095 227.448 53.7569C227.604 53.8955 227.682 54.0775 227.682 54.3029C227.682 54.5282 227.604 54.7145 227.448 54.8619C227.283 55.0092 227.097 55.0829 226.889 55.0829C226.681 55.0829 226.494 55.0092 226.33 54.8619C226.174 54.7059 226.096 54.5195 226.096 54.3029C226.096 54.0775 226.174 53.8955 226.33 53.7569C226.477 53.6095 226.663 53.5359 226.889 53.5359ZM233.774 46.4509H236.14V44.4879H237.05V46.4509H239.819V50.3509H240.846V51.2609H237.297C238.112 53.0549 239.39 54.4935 241.132 55.5769L240.495 56.3049C238.736 55.0829 237.445 53.5489 236.621 51.7029C236.041 53.7742 234.879 55.3039 233.137 56.2919L232.565 55.5249C234.238 54.6322 235.321 53.2109 235.815 51.2609H233.163V50.3509H235.997C236.093 49.7269 236.14 49.0942 236.14 48.4529V47.3219H233.774V46.4509ZM237.05 47.3219V48.2579C237.05 48.9685 237.003 49.6662 236.907 50.3509H238.909V47.3219H237.05ZM230.329 47.0229C230.286 48.3315 230.13 49.5709 229.861 50.7409L229.094 50.5199C229.389 49.3845 229.554 48.2015 229.588 46.9709L230.329 47.0229ZM232.838 46.6589C233.185 47.4562 233.506 48.4225 233.8 49.5579L233.033 49.7529C232.791 48.7475 232.492 47.7942 232.136 46.8929L232.838 46.6589ZM230.979 44.5009H231.902V56.3309H230.979V44.5009ZM3.32294 69.4129C3.73894 70.0629 4.14627 70.7952 4.54494 71.6099L3.73894 72.0129C3.3836 71.2242 2.97194 70.4875 2.50394 69.8029L3.32294 69.4129ZM0.865936 73.0659V72.1689H6.05294V68.9059H1.37294V68.0089H6.05294V66.5139H7.01494V68.0089H11.7989V68.9059H7.01494V72.1689H8.31494C8.80894 71.3109 9.24227 70.3532 9.61494 69.2959L10.5249 69.6209C10.1523 70.5569 9.72327 71.4062 9.23794 72.1689H12.1759V73.0659H7.83394C8.7526 74.5392 10.3213 75.8565 12.5399 77.0179L11.9029 77.8239C9.60627 76.4025 7.99427 74.8165 7.06694 73.0659H7.01494V78.3569H6.05294V73.0659H5.97494C5.14294 74.9032 3.49194 76.4935 1.02194 77.8369L0.501936 77.0049C2.8506 75.8435 4.41927 74.5305 5.20794 73.0659H0.865936ZM17.9479 73.5599V72.6629H20.9769V71.2199H21.9259V72.6629H25.0459V73.5599H22.7319C23.3126 74.7472 24.2443 75.7959 25.5269 76.7059L24.9159 77.4599C23.5466 76.2985 22.5803 74.9985 22.0169 73.5599H21.9259V78.3309H20.9769V73.5599H20.8859C20.2619 75.1632 19.2089 76.4935 17.7269 77.5509L17.2329 76.7449C18.5763 75.9215 19.5556 74.8599 20.1709 73.5599H17.9479ZM14.0089 78.2659L13.8139 77.3559C14.2819 77.3905 14.6199 77.4079 14.8279 77.4079C15.1659 77.4079 15.3349 77.2302 15.3349 76.8749V73.7029C14.7803 73.9109 14.2429 74.0929 13.7229 74.2489L13.4889 73.3129C14.1476 73.1482 14.7629 72.9619 15.3349 72.7539V69.8549H13.7489V68.9579H15.3349V66.5009H16.2969V68.9579H17.3759V69.8549H16.2969V72.3769C16.8169 72.1342 17.2026 71.9479 17.4539 71.8179V72.7669L16.2969 73.3129V77.1089C16.2969 77.8802 15.9156 78.2659 15.1529 78.2659H14.0089ZM24.9419 66.9819V69.4259H24.0449V67.8529H18.9489V69.4519H18.0519V66.9819H24.9419ZM20.9379 69.0879C20.3919 70.2232 19.6726 71.0942 18.7799 71.7009L18.1039 71.1159C19.0053 70.5352 19.6856 69.7552 20.1449 68.7759L20.9379 69.0879ZM22.5369 68.6459C23.4469 69.5819 24.1489 70.4095 24.6429 71.1289L23.9019 71.6619C23.4166 70.8992 22.7319 70.0412 21.8479 69.0879L22.5369 68.6459ZM27.6719 67.4889H32.0529V66.4619H33.0149V67.4889H37.3959V68.3469H33.0149V69.4779H37.9289V71.8569H37.0189V70.2969H32.0529L32.7679 70.6479C31.9966 71.2632 31.1863 71.8005 30.3369 72.2599C31.7236 72.2339 32.6899 72.1992 33.2359 72.1559L34.6269 71.1809L35.3809 71.6879C33.8643 72.8232 32.2176 73.7029 30.4409 74.3269C32.0009 74.2749 33.6866 74.1882 35.4979 74.0669C35.3073 73.8589 35.0083 73.5512 34.6009 73.1439L35.2769 72.7149C36.2389 73.6509 36.9669 74.4612 37.4609 75.1459L36.7589 75.6529C36.5509 75.3409 36.3169 75.0289 36.0569 74.7169L33.0799 74.8989V77.3819C33.0799 78.0405 32.7246 78.3699 32.0139 78.3699H30.8309L30.6359 77.4989C31.0433 77.5422 31.3986 77.5639 31.7019 77.5639C31.9966 77.5639 32.1439 77.4295 32.1439 77.1609V74.9379C30.5319 75.0072 29.2189 75.0549 28.2049 75.0809L28.0229 74.2359C28.3869 74.2532 28.6556 74.2619 28.8289 74.2619C29.8949 73.9672 30.9956 73.4949 32.1309 72.8449L30.7139 72.8839C30.0986 72.9099 29.5656 72.9272 29.1149 72.9359L28.9329 72.2209C29.1149 72.1862 29.3099 72.1125 29.5179 71.9999C30.3586 71.5232 31.1603 70.9555 31.9229 70.2969H28.0489V71.8439H27.1389V69.4779H32.0529V68.3469H27.6719V67.4889ZM34.4579 75.5879C35.8013 76.0819 37.0276 76.6799 38.1369 77.3819L37.6559 78.1359C36.4426 77.3472 35.2206 76.7275 33.9899 76.2769L34.4579 75.5879ZM30.9089 76.1729C29.9469 76.9442 28.7249 77.5855 27.2429 78.0969L26.8529 77.2649C28.2569 76.8402 29.4269 76.2725 30.3629 75.5619L30.9089 76.1729ZM39.9699 66.9819H51.1109V67.8529H46.0019V68.9839H50.0319V74.1319H45.8459C45.6899 75.0072 45.4343 75.6962 45.0789 76.1989C46.9076 76.9702 49.0656 77.3949 51.5529 77.4729L51.3189 78.3699C48.7276 78.2659 46.4526 77.7675 44.4939 76.8749C43.5926 77.6462 42.1019 78.1489 40.0219 78.3829L39.6189 77.5249C41.4389 77.3775 42.7606 77.0092 43.5839 76.4199C42.8213 75.9952 42.1236 75.5142 41.4909 74.9769L42.2059 74.4829C42.8126 74.9855 43.4843 75.4275 44.2209 75.8089C44.5416 75.3495 44.7669 74.7905 44.8969 74.1319H41.0879V68.9839H45.0659V67.8529H39.9699V66.9819ZM49.1089 73.3129V71.9349H46.0019V72.3899L45.9629 73.3129H49.1089ZM45.0269 73.3129C45.0529 73.0095 45.0659 72.7019 45.0659 72.3899V71.9349H42.0109V73.3129H45.0269ZM42.0109 71.1549H45.0659V69.7899H42.0109V71.1549ZM46.0019 69.7899V71.1549H49.1089V69.7899H46.0019ZM59.3139 66.8649C59.0799 67.1249 58.8329 67.3719 58.5729 67.6059H62.3039V68.3469C60.8999 70.8429 58.2956 72.2425 54.4909 72.5459L54.0879 71.7009C55.2666 71.6229 56.3153 71.4495 57.2339 71.1809C56.8266 70.6869 56.4019 70.2362 55.9599 69.8289L56.7789 69.4389C57.2729 69.9069 57.7149 70.3835 58.1049 70.8689C59.4569 70.3229 60.5013 69.5125 61.2379 68.4379H57.4419C56.4279 69.0359 55.2276 69.4909 53.8409 69.8029L53.2949 68.9449C55.6176 68.5029 57.3466 67.6622 58.4819 66.4229L59.3139 66.8649ZM57.9879 74.5479C58.5166 75.0939 58.9889 75.6399 59.4049 76.1859C60.8349 75.5705 61.9703 74.6822 62.8109 73.5209H58.9629C57.8016 74.0755 56.4453 74.4872 54.8939 74.7559L54.3349 73.9239C57.1603 73.6379 59.2533 72.7755 60.6139 71.3369L61.4199 71.7789C61.0646 72.1342 60.7309 72.4289 60.4189 72.6629H63.9809V73.4039C62.1349 76.4719 58.6943 78.0622 53.6589 78.1749L53.2819 77.2779C55.3273 77.2605 57.0779 77.0092 58.5339 76.5239C58.0659 75.9085 57.6066 75.3799 57.1559 74.9379L57.9879 74.5479ZM67.5819 68.6329H65.7099V67.7229H70.4029V68.6329H68.5309V74.8599C69.1636 74.6692 69.8439 74.4265 70.5719 74.1319V75.0679C69.0726 75.6659 67.4953 76.1555 65.8399 76.5369L65.6059 75.5879C66.3166 75.4492 66.9753 75.3019 67.5819 75.1459V68.6329ZM72.7949 66.5009H73.7569V68.9189H77.0589C77.0589 73.0875 76.9939 75.6745 76.8639 76.6799C76.7079 77.7372 75.9713 78.2659 74.6539 78.2659L73.4709 78.2139L73.2499 77.3429C73.7353 77.3689 74.1556 77.3819 74.5109 77.3819C75.3603 77.3819 75.8499 77.0179 75.9799 76.2899C76.0579 75.5879 76.1099 73.4299 76.1359 69.8159H73.7569V69.9459C73.7049 73.8199 72.6693 76.6495 70.6499 78.4349L69.8829 77.7719C71.7983 76.1425 72.7689 73.5339 72.7949 69.9459V69.8159H70.8449V68.9189H72.7949V66.5009ZM80.3349 73.9239V75.1329H83.3899V73.9239H80.3349ZM83.3899 73.1439V71.8959H80.3349V73.1439H83.3899ZM80.3349 75.9259V78.4089H79.4379V71.0769H84.2999V77.1739C84.2999 77.9365 83.9359 78.3179 83.2079 78.3179H82.1289L81.8949 77.4339L82.8959 77.4729C83.2253 77.4729 83.3899 77.3082 83.3899 76.9789V75.9259H80.3349ZM86.6789 72.1039C85.8729 72.1039 85.4699 71.6705 85.4699 70.8039V66.4619H86.3929V68.1909C87.7969 67.9742 88.9669 67.7445 89.9029 67.5019L90.2019 68.3209C89.0579 68.6069 87.7883 68.8495 86.3929 69.0489V70.6089C86.3929 71.0422 86.5749 71.2589 86.9389 71.2589H88.6419C88.9019 71.2589 89.0839 71.1939 89.1879 71.0639C89.3093 70.8992 89.3959 70.4182 89.4479 69.6209L90.3189 69.8939C90.2323 70.9252 90.0676 71.5622 89.8249 71.8049C89.6083 72.0042 89.2746 72.1039 88.8239 72.1039H86.6789ZM86.4189 76.8749C86.4189 77.1869 86.5879 77.3429 86.9259 77.3429H88.6289C88.8889 77.3429 89.0709 77.2779 89.1749 77.1479C89.3049 76.9832 89.3959 76.4935 89.4479 75.6789L90.3059 75.9519C90.2193 77.0005 90.0546 77.6462 89.8119 77.8889C89.5953 78.0882 89.2573 78.1879 88.7979 78.1879H86.6659C85.8859 78.1879 85.4959 77.8152 85.4959 77.0699V72.6369H86.4189V74.2359C87.7276 74.1059 88.8889 73.8849 89.9029 73.5729L90.2019 74.4049C89.0753 74.7342 87.8143 74.9639 86.4189 75.0939V76.8749ZM83.3249 67.3849C84.1309 68.4769 84.7376 69.3912 85.1449 70.1279L84.3779 70.6739C84.2393 70.3879 84.0833 70.1019 83.9099 69.8159C82.5666 70.0325 80.9069 70.1929 78.9309 70.2969L78.6709 69.5169C78.8269 69.4735 78.9699 69.3912 79.0999 69.2699C79.9233 68.4205 80.5906 67.4845 81.1019 66.4619L81.9859 66.7349C81.3793 67.9049 80.7206 68.8149 80.0099 69.4649C81.1626 69.3955 82.3196 69.2872 83.4809 69.1399C83.1863 68.6892 82.8916 68.2559 82.5969 67.8399L83.3249 67.3849ZM95.6749 67.5279V76.8619H94.7649V76.1599H93.0749V77.1349H92.1389V67.5279H95.6749ZM93.0749 75.2499H94.7649V68.4379H93.0749V75.2499ZM99.2499 67.9569H97.6639V72.0389H99.2499V67.9569ZM100.121 72.0389H101.772V67.9569H100.121V72.0389ZM102.682 67.0859V72.9099H97.6639V76.3939C97.6639 76.9745 97.9109 77.2649 98.4049 77.2649H101.564C101.876 77.2475 102.097 77.0915 102.227 76.7969C102.322 76.5629 102.405 75.9562 102.474 74.9769L103.345 75.2629C103.267 76.2075 103.167 76.8619 103.046 77.2259C102.855 77.8239 102.452 78.1359 101.837 78.1619H98.0539C97.1873 78.1619 96.7539 77.6809 96.7539 76.7189V67.0859H102.682ZM106.686 67.8009H107.895L107.687 74.5869H106.881L106.686 67.8009ZM107.284 75.5359C107.518 75.5359 107.709 75.6095 107.856 75.7569C108.003 75.9042 108.077 76.0862 108.077 76.3029C108.077 76.5282 108.003 76.7145 107.856 76.8619C107.691 77.0092 107.501 77.0829 107.284 77.0829C107.076 77.0829 106.89 77.0092 106.725 76.8619C106.578 76.7145 106.504 76.5282 106.504 76.3029C106.504 76.0775 106.578 75.8955 106.725 75.7569C106.872 75.6095 107.059 75.5359 107.284 75.5359ZM37.6955 89.6319V99.8109H36.7855V99.0179H34.1205V99.8109H33.2105V89.6319H37.6955ZM34.1205 98.1079H36.7855V90.5419H34.1205V98.1079ZM29.8175 88.5009C29.6702 89.3675 29.5272 90.1432 29.3885 90.8279H32.0925V91.3739C31.9625 93.5059 31.4642 95.3432 30.5975 96.8859C31.4035 97.5012 32.0492 98.0342 32.5345 98.4849L31.8975 99.2389C31.4035 98.7535 30.8055 98.2335 30.1035 97.6789C29.3929 98.7015 28.4959 99.5855 27.4125 100.331L26.7885 99.5639C27.8372 98.8879 28.7039 98.0689 29.3885 97.1069C28.5652 96.4742 27.8242 95.9239 27.1655 95.4559C27.5555 94.3379 27.9109 93.0985 28.2315 91.7379H26.7105V90.8279H28.4265C28.6172 89.8572 28.7645 89.0555 28.8685 88.4229L29.8175 88.5009ZM29.8695 96.3399C30.6149 95.0139 31.0612 93.4799 31.2085 91.7379H29.1935C28.8902 93.0812 28.5609 94.2295 28.2055 95.1829C28.7775 95.5642 29.3322 95.9499 29.8695 96.3399ZM43.5585 93.1419V94.5589H48.7195V93.1419H43.5585ZM48.7195 95.3779H43.5585V96.7559H48.7195V95.3779ZM48.7195 97.5749H43.5585V100.357H42.6745V93.5579C41.9465 94.4765 41.1102 95.3129 40.1655 96.0669L39.5545 95.2739C41.1925 93.9739 42.4579 92.4875 43.3505 90.8149H39.9055V89.9049H43.7795C44.0135 89.3675 44.2042 88.8605 44.3515 88.3839L45.3005 88.5009C45.1099 89.0989 44.9452 89.5669 44.8065 89.9049H51.2675V90.8149H44.4165C44.1219 91.4129 43.8402 91.9155 43.5715 92.3229H49.6035V99.3429C49.6035 99.9755 49.2395 100.305 48.5115 100.331H47.0555L46.8215 99.4729C47.4802 99.5075 47.9439 99.5249 48.2125 99.5249C48.5505 99.5249 48.7195 99.3689 48.7195 99.0569V97.5749ZM60.9005 100.305L60.6665 99.4339L62.0965 99.4599C62.5905 99.4599 62.8375 99.1739 62.8375 98.6019V90.1259H57.7935V89.2159H63.7865V98.8489C63.7865 99.8195 63.2882 100.305 62.2915 100.305H60.9005ZM53.2305 90.6199H54.1795V100.396H53.2305V90.6199ZM56.1425 92.4919H60.8225V97.3799H56.1425V92.4919ZM59.8735 96.4829V93.3889H57.0915V96.4829H59.8735ZM55.1675 88.3579C55.8002 89.1119 56.3375 89.8962 56.7795 90.7109L55.9475 91.1399C55.4795 90.2819 54.9292 89.4802 54.2965 88.7349L55.1675 88.3579ZM74.5635 99.2909C75.6469 99.2909 76.6219 99.2735 77.4885 99.2389L77.3325 100.175H74.7715C71.6602 100.175 69.7145 100.006 68.9345 99.6679C68.2585 99.3819 67.6475 98.8575 67.1015 98.0949C66.8675 98.9269 66.5425 99.6939 66.1265 100.396L65.4505 99.7979C66.1439 98.6192 66.5252 97.2889 66.5945 95.8069L67.4265 95.9109C67.4005 96.3789 67.3572 96.7905 67.2965 97.1459C67.6345 97.6745 68.0072 98.0905 68.4145 98.3939V95.2349H65.8405V94.3769H71.3525V95.2349H69.2465V96.6129H71.0275V97.4449H69.2465V98.8619C69.3245 98.8879 69.3895 98.9139 69.4415 98.9399C70.1955 99.1739 71.9029 99.2909 74.5635 99.2909ZM66.4255 88.9689H70.8585V93.5059H66.4255V88.9689ZM69.9485 92.7259V91.6209H67.3355V92.7259H69.9485ZM67.3355 90.8929H69.9485V89.7489H67.3355V90.8929ZM71.5345 88.9819H77.1505V89.8399H74.8105C74.7672 90.2212 74.7109 90.5679 74.6415 90.8799H76.7865V96.1319H75.9155V91.6859H72.7695V96.1319H71.9375V90.8799H73.7965C73.8659 90.5852 73.9222 90.2385 73.9655 89.8399H71.5345V88.9819ZM75.2785 96.1709C76.0845 96.7949 76.7605 97.4189 77.3065 98.0429L76.6435 98.6929C76.1409 98.0689 75.4779 97.4275 74.6545 96.7689L75.2785 96.1709ZM73.9135 92.2969H74.7715V94.1299C74.7455 95.3519 74.5072 96.3399 74.0565 97.0939C73.6232 97.7699 72.9039 98.3072 71.8985 98.7059L71.3915 97.8999C72.3189 97.5619 72.9732 97.0982 73.3545 96.5089C73.7012 95.8849 73.8875 95.0919 73.9135 94.1299V92.2969ZM85.9905 88.4619H86.8875V89.3069H90.1115V90.0739H86.8875V90.9449H89.6435V91.6989H86.8875V92.5829H90.4365V93.3629H82.4805V92.5829H85.9905V91.6989H83.3645V90.9449H85.9905V90.0739H82.8445V89.3069H85.9905V88.4619ZM84.3655 96.6389V97.5879H88.5645V96.6389H84.3655ZM88.5645 95.9109V94.9489H84.3655V95.9109H88.5645ZM84.3655 98.3159V100.383H83.4685V94.1819H89.4615V99.2519C89.4615 99.9539 89.0932 100.305 88.3565 100.305H87.2645L87.0435 99.4729L88.0835 99.5119C88.4042 99.5119 88.5645 99.3602 88.5645 99.0569V98.3159H84.3655ZM80.1275 88.6049C80.9769 89.2375 81.7092 89.8962 82.3245 90.5809L81.6875 91.2309C81.1415 90.6069 80.4005 89.9439 79.4645 89.2419L80.1275 88.6049ZM78.5545 92.4399H81.3105V98.1469C81.6485 97.8262 82.0602 97.4189 82.5455 96.9249L82.7925 97.9129C82.0732 98.6582 81.3019 99.3299 80.4785 99.9279L80.1145 99.0959C80.3139 98.9139 80.4135 98.7145 80.4135 98.4979V93.3369H78.5545V92.4399ZM96.9885 91.2959H100.226C100.728 90.4032 101.153 89.4672 101.5 88.4879L102.358 88.8129C101.959 89.8182 101.56 90.6459 101.162 91.2959H103.099V92.1799H100.434V92.5699C100.434 93.1765 100.399 93.7919 100.33 94.4159H103.32V95.3129H100.629C100.941 96.7429 101.903 98.1989 103.515 99.6809L102.865 100.37C101.374 98.8879 100.438 97.4232 100.057 95.9759C99.5539 97.9779 98.5572 99.4599 97.0665 100.422L96.5075 99.6809C97.9722 98.7969 98.9039 97.3409 99.3025 95.3129H96.7935V94.4159H99.4325C99.4932 93.8439 99.5279 93.2979 99.5365 92.7779V92.1799H96.9885V91.2959ZM98.2755 88.5659C98.7955 89.3285 99.1985 90.0045 99.4845 90.5939L98.7825 91.0749C98.4879 90.4595 98.0805 89.7749 97.5605 89.0209L98.2755 88.5659ZM91.6065 88.9949H96.7805V89.8659H95.9355V97.0029C96.1349 96.9335 96.4252 96.8382 96.8065 96.7169V97.6269C96.4772 97.7309 96.1869 97.8175 95.9355 97.8869V100.448H95.0385V98.1339C93.8339 98.4372 92.7592 98.6755 91.8145 98.8489L91.5805 97.9649L92.3995 97.8349V89.8659H91.6065V88.9949ZM93.2965 97.6659C93.9639 97.5185 94.5445 97.3842 95.0385 97.2629V95.3389H93.2965V97.6659ZM93.2965 94.4809H95.0385V92.6219H93.2965V94.4809ZM93.2965 91.7769H95.0385V89.8659H93.2965V91.7769ZM108.572 100.344L108.364 99.4209C108.884 99.4642 109.33 99.4859 109.703 99.4859C110.023 99.4859 110.184 99.3255 110.184 99.0049V95.8199C108.684 95.9152 107.328 95.9889 106.115 96.0409L105.855 95.2089C106.115 95.1829 106.388 95.1265 106.674 95.0399C107.74 94.5719 108.936 93.8439 110.262 92.8559C109.352 92.9252 108.134 93.0075 106.609 93.1029L106.414 92.2709C106.613 92.2449 106.825 92.1885 107.051 92.1019C107.709 91.7725 108.476 91.1312 109.352 90.1779C108.251 90.2299 107.077 90.2559 105.829 90.2559L105.556 89.4369C109.291 89.4369 112.394 89.1639 114.864 88.6179L115.319 89.4109C113.932 89.7315 112.337 89.9612 110.535 90.0999C109.746 91.0185 108.927 91.7552 108.078 92.3099C108.996 92.2665 110.049 92.1929 111.237 92.0889C111.739 91.6902 112.342 91.1745 113.044 90.5419L113.902 90.9709C111.709 92.9035 109.794 94.2989 108.156 95.1569C110.348 95.0355 112.164 94.8882 113.603 94.7149C113.187 94.1775 112.849 93.7572 112.589 93.4539L113.291 93.0249C114.365 94.2815 115.184 95.3649 115.748 96.2749L114.994 96.8079C114.777 96.4265 114.495 95.9802 114.149 95.4689C113.369 95.5555 112.363 95.6509 111.133 95.7549V99.2389C111.133 99.9755 110.764 100.344 110.028 100.344H108.572ZM112.914 96.5479C114.222 97.4925 115.319 98.4459 116.203 99.4079L115.54 100.071C114.742 99.1522 113.659 98.1772 112.29 97.1459L112.914 96.5479ZM108.624 97.2239C107.748 98.2812 106.656 99.2085 105.348 100.006L104.763 99.2519C106.037 98.4979 107.103 97.6269 107.961 96.6389L108.624 97.2239ZM26.8145 111.619H27.8545V115.467C28.0885 115.034 28.4005 114.709 28.7905 114.492C29.1545 114.284 29.5619 114.18 30.0125 114.18C30.8099 114.18 31.4122 114.41 31.8195 114.869C32.2355 115.32 32.4435 115.978 32.4435 116.845V121.083H31.4035V117.001C31.4035 116.386 31.2562 115.905 30.9615 115.558C30.6495 115.22 30.2162 115.051 29.6615 115.051C29.1415 115.051 28.7125 115.259 28.3745 115.675C28.0279 116.082 27.8545 116.607 27.8545 117.248V121.083H26.8145V111.619ZM34.0382 114.362H35.0782V118.47C35.0782 119.12 35.2125 119.597 35.4812 119.9C35.7585 120.221 36.2005 120.381 36.8072 120.381C37.2405 120.381 37.6392 120.208 38.0032 119.861C38.3672 119.497 38.5882 119.029 38.6662 118.457V114.362H39.7062V121.083H38.6662V120.043C38.1115 120.858 37.3835 121.265 36.4822 121.265C34.8528 121.265 34.0382 120.351 34.0382 118.522V114.362ZM43.6916 114.18C45.3469 114.18 46.2656 114.878 46.4476 116.273H45.4336C45.3383 115.84 45.1649 115.536 44.9136 115.363C44.6276 115.155 44.2159 115.051 43.6786 115.051C43.2019 115.051 42.8379 115.138 42.5866 115.311C42.3006 115.476 42.1576 115.71 42.1576 116.013C42.1576 116.308 42.3483 116.55 42.7296 116.741C42.9463 116.845 43.4099 116.992 44.1206 117.183C44.9179 117.374 45.4943 117.582 45.8496 117.807C46.3869 118.145 46.6556 118.604 46.6556 119.185C46.6556 120.572 45.7066 121.265 43.8086 121.265C42.0406 121.265 41.0786 120.489 40.9226 118.938H41.9366C42.0146 119.458 42.2009 119.839 42.4956 120.082C42.7816 120.29 43.2106 120.394 43.7826 120.394C44.9873 120.394 45.5896 120.013 45.5896 119.25C45.5896 118.877 45.3773 118.587 44.9526 118.379C44.7359 118.275 44.2593 118.132 43.5226 117.95C42.7166 117.751 42.1619 117.551 41.8586 117.352C41.3473 117.049 41.0916 116.611 41.0916 116.039C41.0916 115.476 41.3429 115.025 41.8456 114.687C42.3136 114.349 42.9289 114.18 43.6916 114.18ZM49.6701 112.191V114.362H51.3341V115.233H49.6701V119.51C49.6701 119.77 49.7177 119.948 49.8131 120.043C49.9084 120.156 50.0731 120.212 50.3071 120.212H51.1651V121.083H50.1511C49.5964 121.083 49.2021 120.94 48.9681 120.654C48.7514 120.403 48.6431 120.021 48.6431 119.51V115.233H47.2911V114.362H48.6431V112.62L49.6701 112.191ZM55.7082 114.18C56.6788 114.18 57.4415 114.54 57.9962 115.259C58.5075 115.918 58.7632 116.745 58.7632 117.742C58.7632 118.721 58.5118 119.54 58.0092 120.199C57.4545 120.91 56.7048 121.265 55.7602 121.265C54.7982 121.265 54.0572 120.797 53.5372 119.861V123.657H52.4972V114.362H53.4722V115.467C53.9575 114.609 54.7028 114.18 55.7082 114.18ZM55.5782 115.038C54.8935 115.038 54.3692 115.302 54.0052 115.831C53.6672 116.299 53.4982 116.914 53.4982 117.677V117.807C53.4982 118.596 53.6888 119.224 54.0702 119.692C54.4428 120.169 54.9325 120.407 55.5392 120.407C56.2585 120.407 56.8088 120.156 57.1902 119.653C57.5282 119.185 57.6972 118.548 57.6972 117.742C57.6972 116.953 57.5368 116.321 57.2162 115.844C56.8435 115.307 56.2975 115.038 55.5782 115.038ZM63.0393 114.18C63.9927 114.18 64.7033 114.431 65.1714 114.934C65.57 115.385 65.7693 115.996 65.7693 116.767V121.083H64.7943V119.952C64.5257 120.325 64.179 120.628 63.7543 120.862C63.243 121.131 62.6883 121.265 62.0903 121.265C61.4143 121.265 60.877 121.092 60.4783 120.745C60.0623 120.39 59.8543 119.917 59.8543 119.328C59.8543 118.47 60.1967 117.846 60.8813 117.456C61.436 117.127 62.1813 116.962 63.1173 116.962L64.7293 116.949V116.728C64.7293 115.601 64.1443 115.038 62.9743 115.038C62.4283 115.038 62.0037 115.151 61.7003 115.376C61.3623 115.61 61.1543 115.957 61.0763 116.416H60.0493C60.1533 115.645 60.4827 115.073 61.0373 114.7C61.5227 114.353 62.19 114.18 63.0393 114.18ZM64.7293 117.768L63.1823 117.781C61.6743 117.781 60.9203 118.292 60.9203 119.315C60.9203 119.644 61.0417 119.913 61.2843 120.121C61.5357 120.32 61.878 120.42 62.3113 120.42C62.9873 120.42 63.5637 120.212 64.0403 119.796C64.4997 119.38 64.7293 118.899 64.7293 118.353V117.768ZM70.5221 114.18C72.1947 114.18 73.0311 115.103 73.0311 116.949V121.083H71.9911V117.027C71.9911 115.718 71.4017 115.064 70.2231 115.064C69.7551 115.064 69.3521 115.233 69.0141 115.571C68.6587 115.926 68.4594 116.412 68.4161 117.027V121.083H67.3761V114.362H68.4161V115.35C68.6501 114.969 68.9491 114.683 69.3131 114.492C69.6771 114.284 70.0801 114.18 70.5221 114.18ZM79.6038 111.619H80.6438V121.083H79.6688V119.978C79.2008 120.836 78.4555 121.265 77.4328 121.265C76.4535 121.265 75.6865 120.91 75.1318 120.199C74.6291 119.558 74.3778 118.726 74.3778 117.703C74.3778 116.715 74.6291 115.9 75.1318 115.259C75.6691 114.54 76.4188 114.18 77.3808 114.18C78.3428 114.18 79.0838 114.652 79.6038 115.597V111.619ZM77.6018 115.038C76.8565 115.038 76.3018 115.298 75.9378 115.818C75.6085 116.26 75.4438 116.888 75.4438 117.703C75.4438 118.518 75.6041 119.155 75.9248 119.614C76.2975 120.143 76.8435 120.407 77.5628 120.407C78.2388 120.407 78.7631 120.147 79.1358 119.627C79.4651 119.15 79.6298 118.539 79.6298 117.794V117.664C79.6298 116.893 79.4435 116.26 79.0708 115.766C78.6981 115.281 78.2085 115.038 77.6018 115.038ZM85.18 114.18C86.1333 114.18 86.844 114.431 87.312 114.934C87.7106 115.385 87.91 115.996 87.91 116.767V121.083H86.935V119.952C86.6663 120.325 86.3196 120.628 85.895 120.862C85.3836 121.131 84.829 121.265 84.231 121.265C83.555 121.265 83.0176 121.092 82.619 120.745C82.203 120.39 81.995 119.917 81.995 119.328C81.995 118.47 82.3373 117.846 83.022 117.456C83.5766 117.127 84.322 116.962 85.258 116.962L86.87 116.949V116.728C86.87 115.601 86.285 115.038 85.115 115.038C84.569 115.038 84.1443 115.151 83.841 115.376C83.503 115.61 83.295 115.957 83.217 116.416H82.19C82.294 115.645 82.6233 115.073 83.178 114.7C83.6633 114.353 84.3306 114.18 85.18 114.18ZM86.87 117.768L85.323 117.781C83.815 117.781 83.061 118.292 83.061 119.315C83.061 119.644 83.1823 119.913 83.425 120.121C83.6763 120.32 84.0186 120.42 84.452 120.42C85.128 120.42 85.7043 120.212 86.181 119.796C86.6403 119.38 86.87 118.899 86.87 118.353V117.768ZM94.4437 111.619C95.8044 111.619 96.879 112.026 97.6677 112.841C98.3957 113.578 98.7597 114.505 98.7597 115.623C98.7597 116.542 98.4694 117.382 97.8887 118.145C97.3167 118.864 96.6927 119.224 96.0167 119.224C95.4707 119.224 95.1717 118.938 95.1197 118.366C94.6777 118.955 94.1317 119.25 93.4817 119.25C92.9444 119.25 92.5024 119.064 92.1557 118.691C91.8177 118.327 91.6487 117.863 91.6487 117.3C91.6487 116.321 91.9434 115.484 92.5327 114.791C93.096 114.098 93.7677 113.751 94.5477 113.751C95.1717 113.751 95.5877 114.076 95.7957 114.726L95.9907 113.998H96.8357L95.9127 117.391C95.8087 117.764 95.7567 118.028 95.7567 118.184C95.7567 118.401 95.878 118.509 96.1207 118.509C96.5194 118.509 96.9224 118.253 97.3297 117.742C97.7977 117.144 98.0317 116.442 98.0317 115.636C98.0317 114.709 97.7197 113.942 97.0957 113.335C96.4284 112.676 95.527 112.347 94.3917 112.347C93.1957 112.347 92.2077 112.741 91.4277 113.53C90.665 114.301 90.2837 115.294 90.2837 116.507C90.2837 117.824 90.6694 118.838 91.4407 119.549C92.1774 120.234 93.1784 120.576 94.4437 120.576C95.3537 120.576 96.151 120.411 96.8357 120.082C97.4424 119.779 97.9234 119.371 98.2787 118.86H99.1887C98.7294 119.64 98.075 120.238 97.2257 120.654C96.385 121.061 95.4577 121.265 94.4437 121.265C92.8924 121.265 91.666 120.836 90.7647 119.978C89.846 119.094 89.3867 117.928 89.3867 116.481C89.3867 115.12 89.846 113.985 90.7647 113.075C91.7267 112.104 92.953 111.619 94.4437 111.619ZM94.6907 114.57C94.1187 114.57 93.629 114.839 93.2217 115.376C92.7797 115.922 92.5587 116.576 92.5587 117.339C92.5587 117.694 92.641 117.972 92.8057 118.171C92.979 118.379 93.226 118.483 93.5467 118.483C93.876 118.483 94.1967 118.353 94.5087 118.093C94.8207 117.833 95.0287 117.53 95.1327 117.183L95.4187 116.117C95.5054 115.744 95.5487 115.536 95.5487 115.493C95.5487 115.259 95.475 115.055 95.3277 114.882C95.163 114.674 94.9507 114.57 94.6907 114.57ZM100.676 111.619H101.716V115.597C102.236 114.652 102.977 114.18 103.939 114.18C104.901 114.18 105.651 114.54 106.188 115.259C106.691 115.918 106.942 116.732 106.942 117.703C106.942 118.708 106.691 119.54 106.188 120.199C105.625 120.91 104.858 121.265 103.887 121.265C102.856 121.265 102.11 120.836 101.651 119.978V121.083H100.676V111.619ZM103.718 115.038C103.094 115.038 102.604 115.281 102.249 115.766C101.868 116.234 101.677 116.867 101.677 117.664V117.794C101.677 118.548 101.846 119.159 102.184 119.627C102.548 120.147 103.072 120.407 103.757 120.407C104.476 120.407 105.022 120.143 105.395 119.614C105.716 119.129 105.876 118.492 105.876 117.703C105.876 116.897 105.707 116.269 105.369 115.818C104.996 115.298 104.446 115.038 103.718 115.038ZM109.151 111.827C109.376 111.827 109.563 111.901 109.71 112.048C109.866 112.178 109.944 112.36 109.944 112.594C109.944 112.811 109.866 112.997 109.71 113.153C109.545 113.3 109.359 113.374 109.151 113.374C108.943 113.374 108.757 113.3 108.592 113.153C108.445 113.006 108.371 112.819 108.371 112.594C108.371 112.351 108.445 112.169 108.592 112.048C108.739 111.901 108.926 111.827 109.151 111.827ZM108.631 114.362H109.671V121.083H108.631V114.362ZM114.765 114.18C116.438 114.18 117.274 115.103 117.274 116.949V121.083H116.234V117.027C116.234 115.718 115.645 115.064 114.466 115.064C113.998 115.064 113.595 115.233 113.257 115.571C112.902 115.926 112.703 116.412 112.659 117.027V121.083H111.619V114.362H112.659V115.35C112.893 114.969 113.192 114.683 113.556 114.492C113.92 114.284 114.323 114.18 114.765 114.18ZM121.65 114.18C122.664 114.18 123.418 114.626 123.912 115.519V114.362H124.952V120.615C124.952 122.764 123.929 123.839 121.884 123.839C120.965 123.839 120.272 123.657 119.804 123.293C119.327 122.929 119.028 122.383 118.907 121.655H119.947C120.025 122.114 120.216 122.448 120.519 122.656C120.822 122.881 121.277 122.994 121.884 122.994C123.236 122.994 123.912 122.249 123.912 120.758V119.575C123.418 120.476 122.664 120.927 121.65 120.927C120.714 120.927 119.973 120.606 119.427 119.965C118.89 119.35 118.621 118.552 118.621 117.573C118.621 116.585 118.89 115.783 119.427 115.168C119.973 114.509 120.714 114.18 121.65 114.18ZM121.806 115.038C121.13 115.038 120.606 115.281 120.233 115.766C119.869 116.208 119.687 116.81 119.687 117.573C119.687 118.292 119.847 118.869 120.168 119.302C120.541 119.805 121.082 120.056 121.793 120.056C122.46 120.056 122.989 119.822 123.379 119.354C123.743 118.895 123.925 118.301 123.925 117.573C123.925 116.81 123.743 116.208 123.379 115.766C122.998 115.281 122.473 115.038 121.806 115.038ZM125.821 114.362H126.952L129.006 119.666L130.995 114.362H132.139L128.46 123.657H127.329L128.486 120.927L125.821 114.362ZM135.936 114.18C136.889 114.18 137.6 114.431 138.068 114.934C138.467 115.385 138.666 115.996 138.666 116.767V121.083H137.691V119.952C137.422 120.325 137.076 120.628 136.651 120.862C136.14 121.131 135.585 121.265 134.987 121.265C134.311 121.265 133.774 121.092 133.375 120.745C132.959 120.39 132.751 119.917 132.751 119.328C132.751 118.47 133.093 117.846 133.778 117.456C134.333 117.127 135.078 116.962 136.014 116.962L137.626 116.949V116.728C137.626 115.601 137.041 115.038 135.871 115.038C135.325 115.038 134.9 115.151 134.597 115.376C134.259 115.61 134.051 115.957 133.973 116.416H132.946C133.05 115.645 133.379 115.073 133.934 114.7C134.419 114.353 135.087 114.18 135.936 114.18ZM137.626 117.768L136.079 117.781C134.571 117.781 133.817 118.292 133.817 119.315C133.817 119.644 133.938 119.913 134.181 120.121C134.432 120.32 134.775 120.42 135.208 120.42C135.884 120.42 136.46 120.212 136.937 119.796C137.396 119.38 137.626 118.899 137.626 118.353V117.768ZM143.419 114.18C145.091 114.18 145.928 115.103 145.928 116.949V121.083H144.888V117.027C144.888 115.718 144.298 115.064 143.12 115.064C142.652 115.064 142.249 115.233 141.911 115.571C141.555 115.926 141.356 116.412 141.313 117.027V121.083H140.273V114.362H141.313V115.35C141.547 114.969 141.846 114.683 142.21 114.492C142.574 114.284 142.977 114.18 143.419 114.18ZM148.444 119.536C148.67 119.536 148.856 119.61 149.003 119.757C149.159 119.896 149.237 120.078 149.237 120.303C149.237 120.528 149.159 120.715 149.003 120.862C148.839 121.009 148.652 121.083 148.444 121.083C148.236 121.083 148.05 121.009 147.885 120.862C147.729 120.706 147.651 120.52 147.651 120.303C147.651 120.078 147.729 119.896 147.885 119.757C148.033 119.61 148.219 119.536 148.444 119.536ZM154.108 114.18C155.781 114.18 156.617 115.103 156.617 116.949V121.083H155.577V117.027C155.577 115.718 154.988 115.064 153.809 115.064C153.341 115.064 152.938 115.233 152.6 115.571C152.245 115.926 152.045 116.412 152.002 117.027V121.083H150.962V114.362H152.002V115.35C152.236 114.969 152.535 114.683 152.899 114.492C153.263 114.284 153.666 114.18 154.108 114.18ZM160.993 114.18C162.076 114.18 162.891 114.544 163.437 115.272C163.931 115.922 164.191 116.836 164.217 118.015H158.913C158.965 118.778 159.168 119.363 159.524 119.77C159.888 120.186 160.39 120.394 161.032 120.394C161.578 120.394 162.024 120.255 162.371 119.978C162.648 119.753 162.873 119.402 163.047 118.925H164.087C163.931 119.566 163.627 120.095 163.177 120.511C162.605 121.014 161.89 121.265 161.032 121.265C160.07 121.265 159.298 120.949 158.718 120.316C158.128 119.675 157.834 118.808 157.834 117.716C157.834 116.711 158.115 115.883 158.679 115.233C159.251 114.531 160.022 114.18 160.993 114.18ZM161.019 115.051C160.421 115.051 159.94 115.246 159.576 115.636C159.22 116.017 159.008 116.542 158.939 117.209H163.138C163.008 115.77 162.301 115.051 161.019 115.051ZM167.229 112.191V114.362H168.893V115.233H167.229V119.51C167.229 119.77 167.276 119.948 167.372 120.043C167.467 120.156 167.632 120.212 167.866 120.212H168.724V121.083H167.71C167.155 121.083 166.761 120.94 166.527 120.654C166.31 120.403 166.202 120.021 166.202 119.51V115.233H164.85V114.362H166.202V112.62L167.229 112.191Z" fill="#163D35"/>
</svg>
